<svg width="138" height="138" viewBox="0 0 138 138" fill="none" xmlns="http://www.w3.org/2000/svg">
<g filter="url(#filter0_d_92_171)">
<path d="M6 2H132V128H6V2Z" fill="white"/>
<path d="M132 1L132.103 1.00488C132.607 1.05621 133 1.48232 133 2V128C133 128.552 132.552 129 132 129H6C5.44772 129 5 128.552 5 128V2C5 1.44772 5.44772 1 6 1H132Z" stroke="white" stroke-width="2" stroke-linejoin="round"/>
</g>
<g filter="url(#filter1_d_92_171)">
<path d="M9 5H129V125H9V5Z" fill="black"/>
<path d="M129 4L129.103 4.00488C129.607 4.05622 130 4.48232 130 5V125C130 125.552 129.552 126 129 126H9C8.44772 126 8 125.552 8 125V5C8 4.44772 8.44772 4 9 4H129Z" stroke="black" stroke-width="2" stroke-linejoin="round"/>
</g>
<path d="M68.5579 58.219L64.1282 61.9402H67.0211V74.036L68.5579 72.7597V58.219Z" fill="white"/>
<path d="M69.8347 71.6792L74.3423 67.8647H71.3684V56.0454L69.8347 57.1465V71.6792Z" fill="white"/>
<path d="M125.629 60.392C126.14 60.6659 126.508 60.8976 126.732 61.0871L128.326 57.959C127.529 57.4535 126.569 57.0006 125.445 56.6003C124.342 56.2001 123.147 56 121.86 56C120.635 56 119.501 56.2106 118.459 56.6319C117.438 57.0532 116.62 57.6747 116.008 58.4962C115.415 59.3177 115.119 60.3393 115.119 61.5611C115.119 62.9304 115.538 63.9836 116.375 64.7209C117.233 65.4371 118.541 66.0269 120.298 66.4903C121.707 66.8695 122.841 67.217 123.699 67.533C124.577 67.8279 125.016 68.3229 125.016 69.0181C125.016 70.0503 124.077 70.5663 122.197 70.5663C121.258 70.5663 120.369 70.4505 119.531 70.2188C118.694 69.9871 117.958 69.7027 117.325 69.3656C116.712 69.0286 116.273 68.7232 116.008 68.4493L114.353 71.767C115.415 72.4622 116.631 73.0099 117.999 73.4101C119.368 73.8103 120.747 74.0104 122.136 74.0104C123.341 74.0104 124.465 73.8419 125.507 73.5049C126.549 73.1468 127.386 72.578 128.019 71.7986C128.673 70.9982 129 69.9449 129 68.6388C129 67.5645 128.755 66.701 128.265 66.0479C127.795 65.3739 127.11 64.8367 126.211 64.4365C125.333 64.0363 124.291 63.6782 123.086 63.3622C121.717 63.0251 120.675 62.7197 119.96 62.4459C119.266 62.172 118.919 61.7086 118.919 61.0556C118.919 59.9391 119.879 59.3809 121.799 59.3809C122.514 59.3809 123.209 59.4862 123.883 59.6969C124.557 59.8865 125.139 60.1182 125.629 60.392Z" fill="white"/>
<path d="M93.3827 73.9155C92.0344 73.9155 90.8087 73.6733 89.7056 73.1888C88.6025 72.6833 87.6519 72.0092 86.8552 71.1666C86.0585 70.3029 85.4457 69.334 85.0167 68.2596C84.5883 67.1853 84.3732 66.0794 84.3732 64.9419C84.3732 63.7834 84.5979 62.6669 85.0473 61.5926C85.4967 60.5183 86.1306 59.5704 86.9478 58.7489C87.7649 57.9063 88.7244 57.2427 89.8275 56.7582C90.9306 56.2737 92.1359 56.0315 93.4433 56.0315C94.7916 56.0315 96.0179 56.2948 97.121 56.8214C98.2242 57.327 99.1639 58.0116 99.9401 58.8752C100.737 59.7178 101.349 60.6763 101.778 61.7506C102.207 62.8249 102.422 63.9202 102.422 65.0367C102.422 66.1952 102.197 67.3117 101.748 68.386C101.299 69.4393 100.665 70.3872 99.8476 71.2298C99.0509 72.0513 98.1016 72.7043 96.9985 73.1888C95.8953 73.6733 94.6901 73.9155 93.3827 73.9155ZM88.1115 64.9735C88.1115 65.9215 88.3267 66.8272 88.7557 67.6909C89.184 68.5335 89.7867 69.2181 90.5629 69.7447C91.3596 70.2713 92.3095 70.5346 93.4127 70.5346C94.5362 70.5346 95.4861 70.2608 96.2624 69.7131C97.0393 69.1444 97.6311 68.4387 98.0397 67.596C98.4482 66.7324 98.6532 65.8477 98.6532 64.9419C98.6532 63.994 98.4386 63.0987 98.0097 62.2561C97.5807 61.4136 96.9678 60.7395 96.1705 60.2339C95.3942 59.7073 94.4654 59.444 93.3827 59.444C92.2591 59.444 91.2983 59.7178 90.5016 60.2655C89.7254 60.8132 89.133 61.5083 88.7244 62.3509C88.3158 63.1936 88.1115 64.0677 88.1115 64.9735Z" fill="white"/>
<path d="M9 73.7893L16.4767 56.1265H19.5103L26.9564 73.7893H23.0342L21.3182 69.6501H14.6688L12.9529 73.7893H9ZM18.0089 60.7713L15.4962 66.3324H20.4296L18.0089 60.7713Z" fill="white"/>
<path d="M41.4434 56.1265L46.1623 62.3827L50.8812 56.1265H54.8954L48.1234 65.0685L54.6809 73.7893H50.6667L46.1623 67.7859L41.6885 73.7893H37.6131L44.2012 65.0685L37.3986 56.1265H41.4434Z" fill="white"/>
<defs>
<filter id="filter0_d_92_171" x="0" y="0" width="138" height="138" filterUnits="userSpaceOnUse" color-interpolation-filters="sRGB">
<feFlood flood-opacity="0" result="BackgroundImageFix"/>
<feColorMatrix in="SourceAlpha" type="matrix" values="0 0 0 0 0 0 0 0 0 0 0 0 0 0 0 0 0 0 127 0" result="hardAlpha"/>
<feOffset dy="4"/>
<feGaussianBlur stdDeviation="2"/>
<feComposite in2="hardAlpha" operator="out"/>
<feColorMatrix type="matrix" values="0 0 0 0 0 0 0 0 0 0 0 0 0 0 0 0 0 0 0.25 0"/>
<feBlend mode="normal" in2="BackgroundImageFix" result="effect1_dropShadow_92_171"/>
<feBlend mode="normal" in="SourceGraphic" in2="effect1_dropShadow_92_171" result="shape"/>
</filter>
<filter id="filter1_d_92_171" x="3" y="3" width="132" height="132" filterUnits="userSpaceOnUse" color-interpolation-filters="sRGB">
<feFlood flood-opacity="0" result="BackgroundImageFix"/>
<feColorMatrix in="SourceAlpha" type="matrix" values="0 0 0 0 0 0 0 0 0 0 0 0 0 0 0 0 0 0 127 0" result="hardAlpha"/>
<feOffset dy="4"/>
<feGaussianBlur stdDeviation="2"/>
<feComposite in2="hardAlpha" operator="out"/>
<feColorMatrix type="matrix" values="0 0 0 0 0 0 0 0 0 0 0 0 0 0 0 0 0 0 0.25 0"/>
<feBlend mode="normal" in2="BackgroundImageFix" result="effect1_dropShadow_92_171"/>
<feBlend mode="normal" in="SourceGraphic" in2="effect1_dropShadow_92_171" result="shape"/>
</filter>
</defs>
</svg>
