<svg width="134" height="134" viewBox="0 0 134 134" fill="none" xmlns="http://www.w3.org/2000/svg">
<g filter="url(#filter0_d_122_146)">
<path d="M4 25C4 11.1929 15.1929 0 29 0H105C118.807 0 130 11.1929 130 25V101C130 114.807 118.807 126 105 126H29C15.1929 126 4 114.807 4 101V25Z" fill="white"/>
</g>
<g filter="url(#filter1_d_122_146)">
<path d="M7 28C7 14.1929 18.1929 3 32 3H102C115.807 3 127 14.1929 127 28V98C127 111.807 115.807 123 102 123H32C18.1929 123 7 111.807 7 98V28Z" fill="black"/>
</g>
<path d="M115.114 58.546L71.4523 14.8858C68.9396 12.3714 64.8615 12.3714 62.3447 14.8858L53.2792 23.9531L64.7799 35.4539C67.4535 34.5516 70.5176 35.1569 72.6477 37.287C74.7889 39.4307 75.3894 42.521 74.4649 45.2033L85.549 56.2883C88.2305 55.3638 91.3255 55.9611 93.4659 58.1063C96.4603 61.0984 96.4603 65.9489 93.4659 68.9425C92.7543 69.6545 91.9094 70.2192 90.9795 70.6046C90.0496 70.9899 89.0529 71.1882 88.0463 71.1882C87.0397 71.1882 86.043 70.9899 85.1131 70.6046C84.1832 70.2192 83.3383 69.6545 82.6267 68.9425C81.5576 67.8727 80.8288 66.5106 80.5321 65.0275C80.2353 63.5445 80.3839 62.0068 80.9592 60.608L70.6229 50.2717L70.6213 77.4759C71.3713 77.8452 72.056 78.3343 72.6485 78.924C75.6413 81.9161 75.6413 86.765 72.6485 89.7634C69.6549 92.7555 64.8029 92.7555 61.8124 89.7634C58.8196 86.7658 58.8196 81.9168 61.8124 78.924C62.5294 78.2058 63.3823 77.6376 64.3212 77.2525V49.7963C63.3815 49.4123 62.5284 48.8437 61.8124 48.1241C59.5452 45.8584 58.9994 42.5313 60.1623 39.746L48.824 28.4075L18.8863 58.344C17.6785 59.5522 17 61.1906 17 62.899C17 64.6074 17.6785 66.2458 18.8863 67.454L62.5483 111.114C65.0627 113.629 69.1392 113.629 71.6575 111.114L115.114 67.6568C116.322 66.4483 117 64.8097 117 63.1012C117 61.3928 116.321 59.7543 115.114 58.546Z" fill="white"/>
<defs>
<filter id="filter0_d_122_146" x="0" y="0" width="134" height="134" filterUnits="userSpaceOnUse" color-interpolation-filters="sRGB">
<feFlood flood-opacity="0" result="BackgroundImageFix"/>
<feColorMatrix in="SourceAlpha" type="matrix" values="0 0 0 0 0 0 0 0 0 0 0 0 0 0 0 0 0 0 127 0" result="hardAlpha"/>
<feOffset dy="4"/>
<feGaussianBlur stdDeviation="2"/>
<feComposite in2="hardAlpha" operator="out"/>
<feColorMatrix type="matrix" values="0 0 0 0 0 0 0 0 0 0 0 0 0 0 0 0 0 0 0.25 0"/>
<feBlend mode="normal" in2="BackgroundImageFix" result="effect1_dropShadow_122_146"/>
<feBlend mode="normal" in="SourceGraphic" in2="effect1_dropShadow_122_146" result="shape"/>
</filter>
<filter id="filter1_d_122_146" x="3" y="3" width="128" height="128" filterUnits="userSpaceOnUse" color-interpolation-filters="sRGB">
<feFlood flood-opacity="0" result="BackgroundImageFix"/>
<feColorMatrix in="SourceAlpha" type="matrix" values="0 0 0 0 0 0 0 0 0 0 0 0 0 0 0 0 0 0 127 0" result="hardAlpha"/>
<feOffset dy="4"/>
<feGaussianBlur stdDeviation="2"/>
<feComposite in2="hardAlpha" operator="out"/>
<feColorMatrix type="matrix" values="0 0 0 0 0 0 0 0 0 0 0 0 0 0 0 0 0 0 0.25 0"/>
<feBlend mode="normal" in2="BackgroundImageFix" result="effect1_dropShadow_122_146"/>
<feBlend mode="normal" in="SourceGraphic" in2="effect1_dropShadow_122_146" result="shape"/>
</filter>
</defs>
</svg>
