<svg width="132" height="135" viewBox="0 0 132 135" fill="none" xmlns="http://www.w3.org/2000/svg">
<path d="M129 1L129.103 1.00488C129.607 1.05621 130 1.48232 130 2V128C130 128.552 129.552 129 129 129H3C2.44772 129 2 128.552 2 128V2C2 1.44772 2.44772 1 3 1H129Z" fill="white" stroke="white" stroke-width="2" stroke-linejoin="round"/>
<g filter="url(#filter0_d_91_79)">
<path d="M126 4L126.103 4.00488C126.607 4.05622 127 4.48232 127 5V125C127 125.552 126.552 126 126 126H6C5.44772 126 5 125.552 5 125V5C5 4.44772 5.44772 4 6 4H126Z" fill="black" stroke="black" stroke-width="2" stroke-linejoin="round"/>
<path d="M71.2358 59.1521C71.7881 59.1521 72.2358 59.5998 72.2358 60.1521C72.2358 70.4673 72.2923 80.7657 72.2348 91.0593C72.2463 94.1476 72.3896 97.2325 72.2075 100.077C72.0241 102.94 71.507 105.691 70.1469 108.216L70.1479 108.217C68.2269 112.122 64.5843 114.632 60.4731 115.83C60.4547 115.835 60.4361 115.84 60.4174 115.844C54.1989 117.272 48.1771 116.476 43.6411 113.754L43.6332 113.749C40.5783 111.875 38.2244 109.012 36.6401 105.76C36.4145 105.297 36.5779 104.739 37.017 104.469L46.143 98.8806C46.4165 98.7132 46.7542 98.687 47.0502 98.8103C47.2739 98.9036 47.4102 99.0565 47.4379 99.0867C47.492 99.1453 47.5362 99.2041 47.5668 99.2468C47.6296 99.3343 47.694 99.4369 47.7524 99.5339C47.8678 99.7257 48.0131 99.984 48.1635 100.248L48.5805 100.929C49.5215 102.422 50.3718 103.401 51.8276 104.132C52.6844 104.413 54.0327 104.638 55.3188 104.435C56.6037 104.233 57.7399 103.63 58.3803 102.3L58.4155 102.232C58.5607 101.981 58.7114 101.472 58.8198 100.624C58.9242 99.8063 58.9778 98.7851 59.0004 97.5964C59.046 95.1997 58.9653 92.3024 58.9653 89.1707V89.1687L59.0121 60.1501L59.017 60.0486C59.0688 59.5448 59.4949 59.1521 60.0121 59.1521H71.2358ZM96.1518 58.446C103.146 58.3049 107.698 60.1607 111.052 63.9011C111.983 64.8484 112.734 65.8666 114.054 67.9138C114.198 68.1375 114.247 68.4097 114.19 68.6697C114.133 68.9297 113.975 69.1565 113.75 69.2996C110.134 71.6041 110.148 71.5807 104.973 74.9314C104.73 75.0886 104.431 75.1327 104.153 75.0525C103.875 74.9723 103.645 74.775 103.523 74.5125C102.533 72.3817 100.915 71.0807 99.2426 70.5164C97.9324 70.1228 96.4625 70.1485 95.2651 70.5955C94.083 71.0367 93.2199 71.8583 92.9213 73.0652C92.9189 73.0749 92.9162 73.0848 92.9135 73.0945C92.7132 73.8109 92.7193 74.5066 93.1118 75.9978C93.5931 77.037 94.6489 77.8841 96.2075 78.7048C97.8242 79.5561 99.6242 80.2139 101.569 81.1072C106.904 83.2742 110.566 85.5554 113.017 88.0544C115.491 90.5771 116.691 93.2828 117.164 96.2029C118.03 101.038 116.995 104.243 116.773 104.893C114.658 112.112 107.757 115.698 100.535 116.392C93.3138 117.087 85.3708 114.95 80.7563 110.269C80.7437 110.257 80.732 110.243 80.7202 110.229C78.9241 108.2 77.6481 106.99 76.476 104.427C76.2615 103.958 76.439 103.403 76.8862 103.145C81.5058 100.489 81.5054 100.489 85.9985 97.8884C86.4589 97.622 87.0472 97.7629 87.3373 98.2087C88.5311 100.044 89.637 101.397 90.893 102.391C92.1251 103.367 93.5454 104.031 95.4194 104.427C98.0472 104.741 100.544 104.424 102.193 103.462C103.003 102.989 103.588 102.374 103.919 101.612C104.249 100.856 104.366 99.8693 104.098 98.5837C103.86 97.7167 103.21 96.9266 102.086 96.1365C100.953 95.3395 99.454 94.6196 97.7006 93.8572C94.268 92.3646 89.9163 90.7403 86.393 88.1003C82.6732 85.5882 80.4272 81.3369 79.8393 76.9128C79.2496 72.475 80.311 67.7376 83.3764 64.2595C85.449 61.6749 88.8802 59.8205 92.3911 58.9333C92.4295 58.9236 92.4689 58.916 92.5082 58.9109L96.0434 58.4539L96.1518 58.446Z" fill="#FEFFFD" stroke="white" stroke-width="2" stroke-linejoin="round"/>
</g>
<defs>
<filter id="filter0_d_91_79" x="0" y="3" width="132" height="132" filterUnits="userSpaceOnUse" color-interpolation-filters="sRGB">
<feFlood flood-opacity="0" result="BackgroundImageFix"/>
<feColorMatrix in="SourceAlpha" type="matrix" values="0 0 0 0 0 0 0 0 0 0 0 0 0 0 0 0 0 0 127 0" result="hardAlpha"/>
<feOffset dy="4"/>
<feGaussianBlur stdDeviation="2"/>
<feComposite in2="hardAlpha" operator="out"/>
<feColorMatrix type="matrix" values="0 0 0 0 0 0 0 0 0 0 0 0 0 0 0 0 0 0 0.25 0"/>
<feBlend mode="normal" in2="BackgroundImageFix" result="effect1_dropShadow_91_79"/>
<feBlend mode="normal" in="SourceGraphic" in2="effect1_dropShadow_91_79" result="shape"/>
</filter>
</defs>
</svg>
