<svg width="138" height="138" viewBox="0 0 138 138" fill="none" xmlns="http://www.w3.org/2000/svg">
<g filter="url(#filter0_d_92_188)">
<path d="M6 2H132V128H6V2Z" fill="white"/>
<path d="M132 1L132.103 1.00488C132.607 1.05621 133 1.48232 133 2V128C133 128.552 132.552 129 132 129H6C5.44772 129 5 128.552 5 128V2C5 1.44772 5.44772 1 6 1H132Z" stroke="white" stroke-width="2" stroke-linejoin="round"/>
</g>
<g filter="url(#filter1_d_92_188)">
<path d="M9 5H129V125H9V5Z" fill="black"/>
<path d="M129 4L129.103 4.00488C129.607 4.05622 130 4.48232 130 5V125C130 125.552 129.552 126 129 126H9C8.44772 126 8 125.552 8 125V5C8 4.44772 8.44772 4 9 4H129Z" stroke="black" stroke-width="2" stroke-linejoin="round"/>
</g>
<path d="M113.484 8.63623C106.375 8.63623 100.605 14.4077 100.605 21.5161C100.605 28.6245 106.376 34.3951 113.484 34.3951C120.591 34.3951 126.363 28.6362 126.363 21.5161C126.363 14.4077 120.591 8.63623 113.484 8.63623ZM69.4998 21.5287C45.224 21.5287 25.5159 41.2358 25.5159 65.5114C25.5159 89.787 45.2231 109.496 69.4998 109.496C93.7756 109.496 113.484 89.7888 113.484 65.5123C113.484 41.2367 93.7756 21.5287 69.4998 21.5287Z" fill="black"/>
<path d="M87.7246 34.4067C80.618 34.4067 74.8455 40.1783 74.8455 47.2857C74.8455 54.3932 80.6171 60.1656 87.7246 60.1656C94.8322 60.1656 100.605 54.3941 100.605 47.2857C100.605 40.1774 94.8322 34.4067 87.7246 34.4067ZM39.6475 58.6356V87.4923H57.5812V84.2481H43.3284V58.6347L39.6475 58.6356ZM91.3831 66.1555C88.3697 66.1555 85.8793 67.0314 84.4939 68.574C83.546 69.6432 83.157 70.8345 83.0725 72.8874H86.4012C86.6807 70.3485 88.1873 69.2056 91.2735 69.2056C94.2383 69.2056 95.9031 70.3116 95.9031 72.2918V73.1668C95.9031 74.5522 95.0766 75.1479 92.4648 75.4632C87.7992 76.0589 87.0823 76.217 85.8182 76.7273C83.4014 77.7111 82.1732 79.5699 82.1732 82.267C82.1732 86.0341 84.7859 88.4033 88.978 88.4033C91.5897 88.4033 93.6921 87.4923 96.0244 85.3531C96.2553 87.4555 97.2885 88.4033 99.4268 88.4033C100.107 88.4033 100.617 88.3305 101.686 88.0511V85.5598C101.452 85.6212 101.211 85.6499 100.969 85.6451C99.8158 85.6451 99.1833 85.0495 99.1833 84.0172V71.8174C99.1833 68.1356 96.4862 66.1555 91.3831 66.1555ZM61.068 66.752V82.7405C61.068 86.1905 63.6438 88.4024 67.6778 88.4024C70.728 88.4024 72.6596 87.3333 74.6039 84.5994V87.4914H77.5687V66.7511H74.2876V78.5116C74.2876 82.7522 72.064 85.5229 68.6257 85.5229C66.0139 85.5229 64.3491 83.9309 64.3491 81.4405V66.7511L61.068 66.752ZM95.9031 77.2367V80.9553C95.9031 82.073 95.5752 82.7414 94.5914 83.6524C93.242 84.8797 91.6266 85.5122 89.6823 85.5122C87.1065 85.5122 85.5998 84.284 85.5998 82.1826C85.5998 80.0084 87.0697 78.8898 90.5934 78.3795C94.0802 77.9051 94.798 77.747 95.9031 77.2367Z" fill="white"/>
<path d="M67.4632 8C65.7902 8.05773 64.1206 8.18843 62.4589 8.39172L62.6198 9.70163C64.2432 9.50302 65.8745 9.37532 67.5091 9.3189L67.4632 8ZM72.481 8.04133L72.4136 9.36022C74.0467 9.44472 75.6754 9.6006 77.2948 9.82741L77.4781 8.51929C75.8205 8.28723 74.1526 8.12775 72.481 8.04133ZM57.5086 9.21827C55.871 9.56522 54.2495 9.9843 52.6489 10.4743L53.0352 11.7366C54.5988 11.2575 56.1828 10.8477 57.7826 10.5084L57.5086 9.21827ZM82.4132 9.4312L82.1168 10.7169C83.7109 11.0836 85.2883 11.5197 86.8443 12.0241L87.2504 10.769C85.6583 10.2529 84.0443 9.80651 82.4132 9.4312ZM47.9195 12.1534C46.368 12.7818 44.8448 13.4781 43.3546 14.2405L43.9547 15.4156C45.4107 14.6707 46.8987 13.9902 48.4146 13.3762L47.9195 12.1534ZM91.9537 12.5218L91.4389 13.7374C92.9451 14.3752 94.4226 15.0784 95.8673 15.8451L96.4855 14.6789C95.007 13.8946 93.495 13.1743 91.9537 12.5218ZM38.9891 16.7202C37.5706 17.6089 36.1917 18.5591 34.8563 19.5682L35.6523 20.622C36.9569 19.6359 38.3041 18.7072 39.6898 17.8387L38.9891 16.7202ZM30.9876 22.7648C29.7443 23.8857 28.5503 25.0602 27.4091 26.2849L28.3749 27.1842C29.4898 25.988 30.6562 24.8408 31.8707 23.7459L30.9876 22.7648ZM24.1505 30.1005C23.1191 31.4188 22.1458 32.7815 21.2332 34.1848L22.3392 34.9035C23.2307 33.533 24.1816 32.2021 25.1891 30.9145L24.1505 30.1005ZM18.6826 38.5071C17.8953 39.9846 17.1734 41.496 16.5191 43.037L17.7338 43.5527C18.3729 42.0475 19.078 40.5711 19.847 39.1279L18.6826 38.5071ZM120.766 39.3813L119.589 39.9805C120.331 41.4378 121.009 42.9267 121.622 44.443L122.846 43.9489C122.219 42.3971 121.525 40.8726 120.766 39.3813ZM14.7627 47.7376C14.2456 49.3298 13.7989 50.9441 13.424 52.5756L14.7106 52.8703C15.0767 51.2766 15.5128 49.6998 16.0178 48.1446L14.7627 47.7376ZM124.521 48.68L123.26 49.0655C123.738 50.6296 124.147 52.2138 124.487 53.8137L125.778 53.5387C125.43 51.9013 125.011 50.2808 124.521 48.68ZM12.5157 57.5107C12.285 59.1684 12.1268 60.8354 12.0413 62.5069L13.3593 62.5743C13.4428 60.9409 13.5975 59.312 13.8229 57.6922L12.5157 57.5107ZM126.606 58.4882L125.297 58.649C125.496 60.2721 125.624 61.9031 125.681 63.5374L127 63.4925C126.942 61.8194 126.811 60.1497 126.606 58.4882ZM13.3189 67.4806L12 67.5255C12.0575 69.1985 12.1879 70.8682 12.3908 72.5298L13.7007 72.3689C13.5025 70.7458 13.3751 69.1148 13.3189 67.4806ZM125.64 68.4428C125.556 70.0762 125.4 71.7051 125.174 73.3249L126.482 73.5073C126.713 71.8496 126.872 70.1826 126.958 68.5111L125.64 68.4428ZM14.5066 77.207L13.2156 77.4801C13.5625 79.118 13.9816 80.7397 14.4716 82.3406L15.7339 81.9543C15.2552 80.3904 14.8457 78.807 14.5066 77.207ZM124.285 78.1468C123.918 79.7405 123.481 81.3172 122.976 82.8725L124.231 83.2804C124.749 81.6885 125.196 80.0745 125.571 78.4432L124.285 78.1468ZM17.3736 86.5758L16.1499 87.0709C16.7782 88.6227 17.4745 90.1461 18.237 91.6367L19.4112 91.0356C18.6668 89.5797 17.9869 88.0916 17.3736 86.5758ZM121.257 87.4653C120.618 88.9705 119.912 90.4469 119.142 91.89L120.307 92.51C121.095 91.0331 121.817 89.5223 122.472 87.9819L121.257 87.4653ZM21.8325 95.3005L20.7139 96.0013C21.6026 97.4197 22.5529 98.7986 23.562 100.134L24.615 99.3389C23.6291 98.034 22.7007 96.6865 21.8325 95.3005ZM116.648 96.1127C115.756 97.4832 114.805 98.8141 113.797 100.102L114.836 100.916C115.868 99.5977 116.842 98.2353 117.755 96.8323L116.648 96.1127ZM27.7388 103.12L26.7577 104.004C27.8783 105.247 29.0525 106.441 30.2769 107.582L31.1771 106.617C29.9809 105.502 28.8337 104.335 27.7388 103.12ZM110.611 103.83C109.495 105.026 108.328 106.173 107.113 107.268L107.996 108.249C109.24 107.128 110.434 105.955 111.576 104.73L110.611 103.83ZM34.9057 109.803L34.0917 110.842C35.41 111.874 36.7727 112.848 38.176 113.761L38.8947 112.654C37.5242 111.762 36.1932 110.811 34.9057 109.803ZM103.331 110.391C102.026 111.376 100.678 112.304 99.2922 113.172L99.993 114.291C101.411 113.402 102.79 112.452 104.126 111.443L103.331 110.391ZM43.1192 115.147L42.4984 116.311C43.9752 117.099 45.4861 117.821 47.0265 118.475L47.5431 117.261C46.0381 116.621 44.5621 115.916 43.1192 115.147ZM95.0264 115.592C93.5704 116.337 92.0824 117.017 90.5666 117.63L91.0616 118.854C92.6135 118.226 94.1369 117.53 95.6275 116.768L95.0264 115.592ZM52.135 118.98L51.728 120.234C53.3203 120.751 54.9345 121.197 56.5661 121.572L56.8617 120.288C55.268 119.921 53.6903 119.485 52.135 118.98ZM85.945 119.269C84.3813 119.747 82.7973 120.156 81.1977 120.495L81.4708 121.786C83.1086 121.439 84.7304 121.02 86.3313 120.53L85.945 119.269ZM61.6845 121.175L61.5021 122.482C63.1598 122.713 64.8268 122.872 66.4983 122.958L66.5657 121.64C64.9327 121.556 63.304 121.401 61.6845 121.175ZM76.3605 121.3C74.737 121.498 73.1057 121.625 71.4712 121.681L71.5161 123C73.1891 122.943 74.8588 122.813 76.5204 122.61L76.3605 121.3Z" fill="#808080"/>
<defs>
<filter id="filter0_d_92_188" x="0" y="0" width="138" height="138" filterUnits="userSpaceOnUse" color-interpolation-filters="sRGB">
<feFlood flood-opacity="0" result="BackgroundImageFix"/>
<feColorMatrix in="SourceAlpha" type="matrix" values="0 0 0 0 0 0 0 0 0 0 0 0 0 0 0 0 0 0 127 0" result="hardAlpha"/>
<feOffset dy="4"/>
<feGaussianBlur stdDeviation="2"/>
<feComposite in2="hardAlpha" operator="out"/>
<feColorMatrix type="matrix" values="0 0 0 0 0 0 0 0 0 0 0 0 0 0 0 0 0 0 0.25 0"/>
<feBlend mode="normal" in2="BackgroundImageFix" result="effect1_dropShadow_92_188"/>
<feBlend mode="normal" in="SourceGraphic" in2="effect1_dropShadow_92_188" result="shape"/>
</filter>
<filter id="filter1_d_92_188" x="3" y="3" width="132" height="132" filterUnits="userSpaceOnUse" color-interpolation-filters="sRGB">
<feFlood flood-opacity="0" result="BackgroundImageFix"/>
<feColorMatrix in="SourceAlpha" type="matrix" values="0 0 0 0 0 0 0 0 0 0 0 0 0 0 0 0 0 0 127 0" result="hardAlpha"/>
<feOffset dy="4"/>
<feGaussianBlur stdDeviation="2"/>
<feComposite in2="hardAlpha" operator="out"/>
<feColorMatrix type="matrix" values="0 0 0 0 0 0 0 0 0 0 0 0 0 0 0 0 0 0 0.25 0"/>
<feBlend mode="normal" in2="BackgroundImageFix" result="effect1_dropShadow_92_188"/>
<feBlend mode="normal" in="SourceGraphic" in2="effect1_dropShadow_92_188" result="shape"/>
</filter>
</defs>
</svg>
