<svg width="134" height="134" viewBox="0 0 134 134" fill="none" xmlns="http://www.w3.org/2000/svg">
<g filter="url(#filter0_d_123_153)">
<path d="M4 25C4 11.1929 15.1929 0 29 0H105C118.807 0 130 11.1929 130 25V101C130 114.807 118.807 126 105 126H29C15.1929 126 4 114.807 4 101V25Z" fill="white"/>
</g>
<g filter="url(#filter1_d_123_153)">
<path d="M7 28C7 14.1929 18.1929 3 32 3H102C115.807 3 127 14.1929 127 28V98C127 111.807 115.807 123 102 123H32C18.1929 123 7 111.807 7 98V28Z" fill="black"/>
</g>
<path d="M105.247 13.5532C99.0654 13.5532 94.0475 18.5719 94.0475 24.7531C94.0475 30.9343 99.0662 35.9523 105.247 35.9523C111.427 35.9523 116.446 30.9445 116.446 24.7531C116.446 18.5719 111.427 13.5532 105.247 13.5532ZM66.9998 24.7641C45.8904 24.7641 28.7529 41.9007 28.7529 63.0099C28.7529 84.1191 45.8896 101.257 66.9998 101.257C88.1092 101.257 105.247 84.1206 105.247 63.0106C105.247 41.9014 88.1092 24.7641 66.9998 24.7641Z" fill="black"/>
<path d="M82.8475 35.9624C76.6678 35.9624 71.6483 40.9811 71.6483 47.1615C71.6483 53.342 76.667 58.3614 82.8475 58.3614C89.028 58.3614 94.0475 53.3427 94.0475 47.1615C94.0475 40.9803 89.028 35.9624 82.8475 35.9624ZM41.0413 57.031V82.1238H56.6358V79.3027H44.242V57.0302L41.0413 57.031ZM86.0288 63.57C83.4085 63.57 81.2428 64.3317 80.0381 65.6731C79.2139 66.6028 78.8756 67.6387 78.8022 69.4239H81.6967C81.9397 67.2161 83.2499 66.2223 85.9334 66.2223C88.5116 66.2223 89.9592 67.184 89.9592 68.9059V69.6668C89.9592 70.8715 89.2405 71.3895 86.9694 71.6637C82.9124 72.1816 82.2889 72.3192 81.1897 72.7629C79.0881 73.6184 78.0202 75.2348 78.0202 77.58C78.0202 80.8558 80.292 82.9159 83.9374 82.9159C86.2084 82.9159 88.0366 82.1238 90.0647 80.2636C90.2655 82.0917 91.1639 82.9159 93.0233 82.9159C93.6147 82.9159 94.0584 82.8527 94.9881 82.6097V80.4433C94.7847 80.4967 94.5749 80.5217 94.3647 80.5175C93.3616 80.5175 92.8116 79.9996 92.8116 79.1019V68.4934C92.8116 65.2919 90.4663 63.57 86.0288 63.57ZM59.6678 64.0887V77.9918C59.6678 80.9917 61.9077 82.9152 65.4155 82.9152C68.0678 82.9152 69.7475 81.9855 71.4381 79.6082V82.123H74.0163V64.088H71.1631V74.3144C71.1631 78.0019 69.2295 80.4113 66.2397 80.4113C63.9686 80.4113 62.5209 79.0269 62.5209 76.8613V64.088L59.6678 64.0887ZM89.9592 73.2059V76.4394C89.9592 77.4113 89.6741 77.9925 88.8186 78.7847C87.6452 79.8519 86.2405 80.4019 84.5499 80.4019C82.31 80.4019 80.9999 79.3339 80.9999 77.5066C80.9999 75.616 82.278 74.6433 85.342 74.1996C88.3741 73.7871 88.9983 73.6496 89.9592 73.2059Z" fill="white"/>
<path d="M65.2289 13C63.7741 13.0502 62.3222 13.1639 60.8773 13.3406L61.0172 14.4797C62.4289 14.307 63.8474 14.1959 65.2688 14.1469L65.2289 13ZM69.5922 13.0359L69.5336 14.1828C70.9537 14.2563 72.3699 14.3918 73.7781 14.589L73.9375 13.4516C72.4961 13.2498 71.0457 13.1111 69.5922 13.0359ZM56.5727 14.0594C55.1487 14.3611 53.7387 14.7255 52.3469 15.1515L52.6828 16.2492C54.0425 15.8326 55.4198 15.4763 56.8109 15.1812L56.5727 14.0594ZM78.2289 14.2445L77.9711 15.3625C79.3573 15.6814 80.7289 16.0606 82.082 16.4992L82.4352 15.4078C81.0507 14.959 79.6473 14.5709 78.2289 14.2445ZM48.2344 16.6117C46.8852 17.1581 45.5607 17.7636 44.2648 18.4265L44.7867 19.4484C46.0528 18.8006 47.3467 18.2089 48.6648 17.675L48.2344 16.6117ZM86.525 16.932L86.0773 17.989C87.387 18.5436 88.6718 19.1551 89.9281 19.8218L90.4656 18.8078C89.18 18.1257 87.8652 17.4994 86.525 16.932ZM40.4688 20.5828C39.2353 21.3555 38.0363 22.1818 36.875 23.0593L37.5672 23.9757C38.7017 23.1182 39.8731 22.3106 41.0781 21.5554L40.4688 20.5828ZM33.5109 25.839C32.4298 26.8137 31.3916 27.8349 30.3992 28.8999L31.2391 29.6819C32.2085 28.6417 33.2228 27.6441 34.2789 26.6921L33.5109 25.839ZM27.5656 32.2178C26.6688 33.3642 25.8224 34.5492 25.0289 35.7694L25.9906 36.3943C26.7658 35.2026 27.5927 34.0453 28.4688 32.9256L27.5656 32.2178ZM22.8109 39.5279C22.1263 40.8127 21.4986 42.127 20.9297 43.4669L21.9859 43.9154C22.5417 42.6065 23.1547 41.3227 23.8234 40.0678L22.8109 39.5279ZM111.579 40.2881L110.555 40.8092C111.201 42.0763 111.791 43.371 112.323 44.6896L113.387 44.2599C112.843 42.9106 112.239 41.5848 111.579 40.2881ZM19.4023 47.5544C18.9527 48.939 18.5643 50.3427 18.2383 51.7614L19.357 52.0177C19.6753 50.6318 20.0546 49.2607 20.4938 47.9083L19.4023 47.5544ZM114.845 48.3739L113.748 48.7091C114.163 50.0692 114.519 51.4468 114.815 52.838L115.937 52.5989C115.635 51.1751 115.27 49.7659 114.845 48.3739ZM17.4484 56.0528C17.2479 57.4943 17.1102 58.9438 17.0359 60.3973L18.182 60.4559C18.2546 59.0356 18.3891 57.6192 18.5852 56.2106L17.4484 56.0528ZM116.658 56.9028L115.519 57.0426C115.692 58.454 115.804 59.8723 115.853 61.2934L117 61.2543C116.949 59.7995 116.835 58.3476 116.658 56.9028ZM18.1469 64.7223L17 64.7613C17.05 66.2161 17.1634 67.668 17.3398 69.1128L18.4789 68.973C18.3065 67.5616 18.1957 66.1433 18.1469 64.7223ZM115.817 65.559C115.744 66.9793 115.609 68.3957 115.413 69.8042L116.549 69.9628C116.75 68.5214 116.888 67.0718 116.963 65.6183L115.817 65.559ZM19.1797 73.18L18.057 73.4175C18.3587 74.8417 18.7232 76.2519 19.1492 77.644L20.2469 77.3081C19.8306 75.9482 19.4745 74.5713 19.1797 73.18ZM114.639 73.9972C114.32 75.383 113.94 76.7541 113.501 78.1065L114.592 78.4612C115.042 77.0769 115.431 75.6735 115.758 74.255L114.639 73.9972ZM21.6727 81.3268L20.6086 81.7573C21.1549 83.1067 21.7605 84.4314 22.4234 85.7276L23.4445 85.2049C22.7972 83.9388 22.206 82.6449 21.6727 81.3268ZM112.006 82.1002C111.45 83.4092 110.836 84.693 110.167 85.9479L111.18 86.4869C111.865 85.2027 112.493 83.889 113.062 82.5495L112.006 82.1002ZM25.55 88.9135L24.5773 89.5228C25.3501 90.7562 26.1764 91.9553 27.0539 93.1166L27.9695 92.4252C27.1122 91.2904 26.305 90.1187 25.55 88.9135ZM107.998 89.6197C107.223 90.8115 106.396 91.9688 105.52 93.0884L106.423 93.7962C107.32 92.6502 108.167 91.4654 108.961 90.2455L107.998 89.6197ZM30.6859 95.7134L29.8328 96.4814C30.8073 97.5625 31.8283 98.6007 32.893 99.5931L33.6758 98.754C32.6355 97.7843 31.638 96.7698 30.6859 95.7134ZM102.748 96.3306C101.778 97.3706 100.764 98.3679 99.707 99.3196L100.475 100.173C101.556 99.1986 102.595 98.1778 103.588 97.1134L102.748 96.3306ZM36.918 101.524L36.2102 102.428C37.3565 103.325 38.5415 104.172 39.7617 104.966L40.3867 104.003C39.195 103.228 38.0376 102.401 36.918 101.524ZM96.418 102.035C95.2832 102.892 94.1115 103.699 92.9063 104.454L93.5156 105.427C94.749 104.654 95.9481 103.828 97.1094 102.95L96.418 102.035ZM44.0602 106.171L43.5203 107.184C44.8045 107.868 46.1183 108.496 47.4578 109.066L47.907 108.009C46.5984 107.453 45.3148 106.84 44.0602 106.171ZM89.1969 106.559C87.9308 107.206 86.6369 107.797 85.3187 108.331L85.7492 109.395C87.0987 108.848 88.4234 108.243 89.7195 107.581L89.1969 106.559ZM51.9 109.504L51.5461 110.595C52.9307 111.044 54.3344 111.433 55.7531 111.759L56.0102 110.641C54.6243 110.323 53.2524 109.943 51.9 109.504ZM81.3 109.755C79.9403 110.171 78.5629 110.527 77.1719 110.822L77.4094 111.945C78.8336 111.643 80.2438 111.278 81.6359 110.852L81.3 109.755ZM60.2039 111.413L60.0453 112.55C61.4868 112.751 62.9363 112.889 64.3898 112.963L64.4484 111.817C63.0284 111.744 61.6122 111.61 60.2039 111.413ZM72.9656 111.522C71.5539 111.694 70.1354 111.805 68.7141 111.853L68.7531 113C70.2079 112.95 71.6598 112.837 73.1047 112.661L72.9656 111.522Z" fill="#808080"/>
<defs>
<filter id="filter0_d_123_153" x="0" y="0" width="134" height="134" filterUnits="userSpaceOnUse" color-interpolation-filters="sRGB">
<feFlood flood-opacity="0" result="BackgroundImageFix"/>
<feColorMatrix in="SourceAlpha" type="matrix" values="0 0 0 0 0 0 0 0 0 0 0 0 0 0 0 0 0 0 127 0" result="hardAlpha"/>
<feOffset dy="4"/>
<feGaussianBlur stdDeviation="2"/>
<feComposite in2="hardAlpha" operator="out"/>
<feColorMatrix type="matrix" values="0 0 0 0 0 0 0 0 0 0 0 0 0 0 0 0 0 0 0.25 0"/>
<feBlend mode="normal" in2="BackgroundImageFix" result="effect1_dropShadow_123_153"/>
<feBlend mode="normal" in="SourceGraphic" in2="effect1_dropShadow_123_153" result="shape"/>
</filter>
<filter id="filter1_d_123_153" x="3" y="3" width="128" height="128" filterUnits="userSpaceOnUse" color-interpolation-filters="sRGB">
<feFlood flood-opacity="0" result="BackgroundImageFix"/>
<feColorMatrix in="SourceAlpha" type="matrix" values="0 0 0 0 0 0 0 0 0 0 0 0 0 0 0 0 0 0 127 0" result="hardAlpha"/>
<feOffset dy="4"/>
<feGaussianBlur stdDeviation="2"/>
<feComposite in2="hardAlpha" operator="out"/>
<feColorMatrix type="matrix" values="0 0 0 0 0 0 0 0 0 0 0 0 0 0 0 0 0 0 0.25 0"/>
<feBlend mode="normal" in2="BackgroundImageFix" result="effect1_dropShadow_123_153"/>
<feBlend mode="normal" in="SourceGraphic" in2="effect1_dropShadow_123_153" result="shape"/>
</filter>
</defs>
</svg>
