<svg width="138" height="138" viewBox="0 0 138 138" fill="none" xmlns="http://www.w3.org/2000/svg">
<g filter="url(#filter0_d_91_149)">
<path d="M6 2H132V128H6V2Z" fill="white"/>
<path d="M132 1L132.103 1.00488C132.607 1.05621 133 1.48232 133 2V128C133 128.552 132.552 129 132 129H6C5.44772 129 5 128.552 5 128V2C5 1.44772 5.44772 1 6 1H132Z" stroke="white" stroke-width="2" stroke-linejoin="round"/>
</g>
<g filter="url(#filter1_d_91_149)">
<path d="M9 5H129V125H9V5Z" fill="black"/>
<path d="M129 4L129.103 4.00488C129.607 4.05622 130 4.48232 130 5V125C130 125.552 129.552 126 129 126H9C8.44772 126 8 125.552 8 125V5C8 4.44772 8.44772 4 9 4H129Z" stroke="black" stroke-width="2" stroke-linejoin="round"/>
</g>
<path d="M10 54V75.9642H14.0765V58.6943L29.1105 75.9727H54.6409V72.4661H38.166V66.6676H51.4134V63.161H38.166V57.516H54.64V54.0068H34.0886V57.516H34.0904V75.8107L15.0952 54H10ZM88.4423 54.0085V57.5169H96.7669V75.9753H100.842V57.5169H108.997V54.0077H88.4423V54.0085ZM59.5674 54.0179L78.6778 75.9838H84.0275L74.4722 65.0085L84.0137 54.035L78.676 54.0435L71.7997 61.9392L64.9041 54.0188H59.5665L59.5674 54.0179ZM124.244 66.4639C123.543 66.4639 122.912 66.573 122.354 66.7998C121.799 67.024 121.36 67.3395 121.039 67.7445C120.716 68.1503 120.555 68.6243 120.555 69.1632C120.555 69.8196 120.793 70.3431 121.274 70.7379C121.751 71.1335 122.405 71.4276 123.232 71.6211L124.375 71.8872C124.698 71.9595 125.014 72.0547 125.321 72.1719C125.559 72.259 125.774 72.3931 125.951 72.565C126.104 72.7302 126.185 72.9418 126.179 73.1592C126.182 73.4086 126.089 73.6509 125.918 73.8438C125.733 74.0509 125.491 74.2083 125.218 74.3C124.884 74.4139 124.53 74.4695 124.174 74.4636C123.824 74.4681 123.476 74.4156 123.145 74.3085C122.858 74.2126 122.602 74.0489 122.404 73.8336C122.209 73.6068 122.096 73.3292 122.08 73.0398H120.29C120.315 73.6452 120.489 74.1618 120.812 74.5847C121.135 75.0076 121.583 75.329 122.158 75.5481C122.73 75.7698 123.409 75.8806 124.188 75.8806C124.995 75.8806 125.681 75.7647 126.247 75.5396C126.815 75.3094 127.25 74.9914 127.55 74.5864C127.852 74.178 128 73.71 128 73.1728C128 72.7755 127.917 72.4294 127.755 72.1353C127.594 71.8426 127.368 71.5849 127.091 71.379C126.803 71.1659 126.484 70.9917 126.143 70.8615C125.789 70.7224 125.422 70.6126 125.046 70.5332L124.106 70.3201C123.898 70.2742 123.693 70.2187 123.491 70.1539C123.298 70.0931 123.113 70.0116 122.941 69.9109C122.78 69.8222 122.645 69.7002 122.544 69.5545C122.444 69.4066 122.393 69.2345 122.399 69.06C122.399 68.8398 122.476 68.6256 122.618 68.4487C122.762 68.2696 122.973 68.1281 123.243 68.0224C123.553 67.912 123.884 67.8587 124.217 67.8655C124.756 67.8655 125.196 67.973 125.535 68.1921C125.699 68.2943 125.835 68.4295 125.935 68.5874C126.034 68.7454 126.094 68.9221 126.109 69.1043H127.861C127.861 68.6133 127.695 68.1345 127.388 67.7342C127.081 67.3369 126.658 67.024 126.118 66.7998C125.58 66.5739 124.957 66.4639 124.244 66.4639ZM116.871 66.5867V73.0236C116.868 73.3451 116.814 73.6179 116.709 73.837C116.614 74.0444 116.451 74.2187 116.242 74.3349C116.041 74.4483 115.793 74.5054 115.502 74.5054C115.235 74.5054 114.999 74.4568 114.791 74.3605C114.591 74.2698 114.424 74.1273 114.31 73.9504C114.19 73.7559 114.128 73.5351 114.13 73.311H112.321C112.321 73.8745 112.456 74.3451 112.733 74.7228C113.008 75.1014 113.396 75.3981 113.849 75.5771C114.35 75.7753 114.89 75.8741 115.435 75.867C116.077 75.867 116.643 75.7528 117.126 75.526C117.601 75.3082 117.997 74.9679 118.266 74.5463C118.536 74.1209 118.675 73.6145 118.679 73.0228V66.5867H116.871ZM67.7057 66.637L59.5526 76H64.9041L70.3773 69.708L67.7057 66.637ZM109.914 73.8822C109.615 73.8822 109.361 73.9777 109.149 74.1687C109.046 74.2561 108.965 74.3626 108.91 74.4812C108.856 74.5998 108.829 74.7278 108.831 74.8567C108.828 74.9871 108.854 75.1166 108.909 75.2368C108.964 75.3571 109.045 75.4652 109.149 75.5541C109.361 75.7459 109.615 75.8406 109.914 75.8406C110.1 75.8418 110.283 75.7958 110.443 75.7076C110.606 75.6215 110.736 75.5029 110.837 75.3529C110.937 75.2037 110.99 75.032 110.99 74.8567C110.99 74.7274 110.961 74.5995 110.905 74.481C110.849 74.3626 110.767 74.2562 110.664 74.1687C110.566 74.077 110.449 74.0044 110.32 73.9552C110.191 73.906 110.053 73.8812 109.914 73.8822Z" fill="#FFFBFB"/>
<defs>
<filter id="filter0_d_91_149" x="0" y="0" width="138" height="138" filterUnits="userSpaceOnUse" color-interpolation-filters="sRGB">
<feFlood flood-opacity="0" result="BackgroundImageFix"/>
<feColorMatrix in="SourceAlpha" type="matrix" values="0 0 0 0 0 0 0 0 0 0 0 0 0 0 0 0 0 0 127 0" result="hardAlpha"/>
<feOffset dy="4"/>
<feGaussianBlur stdDeviation="2"/>
<feComposite in2="hardAlpha" operator="out"/>
<feColorMatrix type="matrix" values="0 0 0 0 0 0 0 0 0 0 0 0 0 0 0 0 0 0 0.25 0"/>
<feBlend mode="normal" in2="BackgroundImageFix" result="effect1_dropShadow_91_149"/>
<feBlend mode="normal" in="SourceGraphic" in2="effect1_dropShadow_91_149" result="shape"/>
</filter>
<filter id="filter1_d_91_149" x="3" y="3" width="132" height="132" filterUnits="userSpaceOnUse" color-interpolation-filters="sRGB">
<feFlood flood-opacity="0" result="BackgroundImageFix"/>
<feColorMatrix in="SourceAlpha" type="matrix" values="0 0 0 0 0 0 0 0 0 0 0 0 0 0 0 0 0 0 127 0" result="hardAlpha"/>
<feOffset dy="4"/>
<feGaussianBlur stdDeviation="2"/>
<feComposite in2="hardAlpha" operator="out"/>
<feColorMatrix type="matrix" values="0 0 0 0 0 0 0 0 0 0 0 0 0 0 0 0 0 0 0.25 0"/>
<feBlend mode="normal" in2="BackgroundImageFix" result="effect1_dropShadow_91_149"/>
<feBlend mode="normal" in="SourceGraphic" in2="effect1_dropShadow_91_149" result="shape"/>
</filter>
</defs>
</svg>
