<svg width="134" height="134" viewBox="0 0 134 134" fill="none" xmlns="http://www.w3.org/2000/svg">
<g filter="url(#filter0_d_122_115)">
<path d="M4 25C4 11.1929 15.1929 0 29 0H105C118.807 0 130 11.1929 130 25V101C130 114.807 118.807 126 105 126H29C15.1929 126 4 114.807 4 101V25Z" fill="white"/>
</g>
<g filter="url(#filter1_d_122_115)">
<path d="M7 28C7 14.1929 18.1929 3 32 3H102C115.807 3 127 14.1929 127 28V98C127 111.807 115.807 123 102 123H32C18.1929 123 7 111.807 7 98V28Z" fill="black"/>
</g>
<path d="M17 52V73.9642H20.4547V56.6943L33.1953 73.9727H54.8312V70.4661H40.8695V64.6676H52.0961V61.161H40.8695V55.516H54.8305V52.0068H37.4141V55.516H37.4156V73.8107L21.318 52H17ZM83.4766 52.0085V55.5169H90.5313V73.9753H93.9844V55.5169H100.896V52.0077H83.4766V52.0085ZM59.0063 52.0179L75.2016 73.9838H79.7352L71.6375 63.0085L79.7234 52.035L75.2 52.0435L69.3727 59.9392L63.5289 52.0188H59.0055L59.0063 52.0179ZM113.817 64.4639C113.223 64.4639 112.688 64.573 112.215 64.7998C111.745 65.024 111.373 65.3395 111.101 65.7445C110.827 66.1503 110.691 66.6243 110.691 67.1632C110.691 67.8196 110.892 68.3431 111.3 68.7379C111.704 69.1335 112.259 69.4276 112.959 69.6211L113.928 69.8872C114.202 69.9595 114.47 70.0547 114.73 70.1719C114.932 70.259 115.114 70.3931 115.263 70.565C115.393 70.7302 115.462 70.9418 115.457 71.1592C115.459 71.4086 115.381 71.6509 115.236 71.8438C115.079 72.0509 114.874 72.2083 114.642 72.3C114.359 72.4139 114.059 72.4695 113.758 72.4636C113.461 72.4681 113.166 72.4156 112.886 72.3085C112.642 72.2126 112.426 72.0489 112.258 71.8336C112.093 71.6068 111.996 71.3292 111.983 71.0398H110.466C110.488 71.6452 110.635 72.1618 110.909 72.5847C111.182 73.0076 111.562 73.329 112.049 73.5481C112.534 73.7698 113.109 73.8806 113.77 73.8806C114.453 73.8806 115.034 73.7647 115.514 73.5396C115.996 73.3094 116.364 72.9914 116.619 72.5864C116.874 72.178 117 71.71 117 71.1728C117 70.7755 116.93 70.4294 116.792 70.1353C116.656 69.8426 116.464 69.5849 116.23 69.379C115.986 69.1659 115.715 68.9917 115.427 68.8615C115.126 68.7224 114.815 68.6126 114.497 68.5332L113.7 68.3201C113.524 68.2742 113.35 68.2187 113.179 68.1539C113.015 68.0931 112.859 68.0116 112.713 67.9109C112.577 67.8222 112.462 67.7002 112.377 67.5545C112.292 67.4066 112.249 67.2345 112.253 67.06C112.254 66.8398 112.319 66.6256 112.439 66.4487C112.561 66.2696 112.74 66.1281 112.969 66.0224C113.232 65.912 113.512 65.8587 113.794 65.8655C114.251 65.8655 114.623 65.973 114.911 66.1921C115.05 66.2943 115.166 66.4295 115.25 66.5874C115.334 66.7454 115.385 66.9221 115.398 67.1043H116.882C116.882 66.6133 116.742 66.1345 116.481 65.7342C116.221 65.3369 115.862 65.024 115.405 64.7998C114.949 64.5739 114.421 64.4639 113.817 64.4639ZM107.569 64.5867V71.0236C107.566 71.3451 107.52 71.6179 107.431 71.837C107.351 72.0444 107.213 72.2187 107.036 72.3349C106.866 72.4483 106.655 72.5054 106.409 72.5054C106.182 72.5054 105.982 72.4568 105.806 72.3605C105.637 72.2698 105.495 72.1273 105.398 71.9504C105.296 71.7559 105.244 71.5351 105.246 71.311H103.712C103.712 71.8745 103.827 72.3451 104.062 72.7228C104.295 73.1014 104.623 73.3981 105.008 73.5771C105.432 73.7753 105.89 73.8741 106.352 73.867C106.896 73.867 107.376 73.7528 107.785 73.526C108.187 73.3082 108.522 72.9679 108.751 72.5463C108.98 72.1209 109.098 71.6145 109.101 71.0228V64.5867H107.569ZM65.9031 64.637L58.9937 74H63.5289L68.1672 67.708L65.9031 64.637ZM101.673 71.8822C101.42 71.8822 101.204 71.9777 101.024 72.1687C100.937 72.2561 100.869 72.3626 100.822 72.4812C100.776 72.5998 100.753 72.7278 100.755 72.8567C100.753 72.9871 100.775 73.1166 100.821 73.2368C100.868 73.3571 100.937 73.4652 101.024 73.5541C101.204 73.7459 101.42 73.8406 101.673 73.8406C101.83 73.8418 101.986 73.7958 102.121 73.7076C102.259 73.6215 102.37 73.5029 102.455 73.3529C102.54 73.2037 102.585 73.032 102.585 72.8567C102.585 72.7274 102.561 72.5995 102.513 72.481C102.465 72.3626 102.396 72.2562 102.309 72.1687C102.225 72.077 102.126 72.0044 102.017 71.9552C101.908 71.906 101.791 71.8812 101.673 71.8822Z" fill="#FFFBFB"/>
<defs>
<filter id="filter0_d_122_115" x="0" y="0" width="134" height="134" filterUnits="userSpaceOnUse" color-interpolation-filters="sRGB">
<feFlood flood-opacity="0" result="BackgroundImageFix"/>
<feColorMatrix in="SourceAlpha" type="matrix" values="0 0 0 0 0 0 0 0 0 0 0 0 0 0 0 0 0 0 127 0" result="hardAlpha"/>
<feOffset dy="4"/>
<feGaussianBlur stdDeviation="2"/>
<feComposite in2="hardAlpha" operator="out"/>
<feColorMatrix type="matrix" values="0 0 0 0 0 0 0 0 0 0 0 0 0 0 0 0 0 0 0.25 0"/>
<feBlend mode="normal" in2="BackgroundImageFix" result="effect1_dropShadow_122_115"/>
<feBlend mode="normal" in="SourceGraphic" in2="effect1_dropShadow_122_115" result="shape"/>
</filter>
<filter id="filter1_d_122_115" x="3" y="3" width="128" height="128" filterUnits="userSpaceOnUse" color-interpolation-filters="sRGB">
<feFlood flood-opacity="0" result="BackgroundImageFix"/>
<feColorMatrix in="SourceAlpha" type="matrix" values="0 0 0 0 0 0 0 0 0 0 0 0 0 0 0 0 0 0 127 0" result="hardAlpha"/>
<feOffset dy="4"/>
<feGaussianBlur stdDeviation="2"/>
<feComposite in2="hardAlpha" operator="out"/>
<feColorMatrix type="matrix" values="0 0 0 0 0 0 0 0 0 0 0 0 0 0 0 0 0 0 0.25 0"/>
<feBlend mode="normal" in2="BackgroundImageFix" result="effect1_dropShadow_122_115"/>
<feBlend mode="normal" in="SourceGraphic" in2="effect1_dropShadow_122_115" result="shape"/>
</filter>
</defs>
</svg>
