<svg width="138" height="138" viewBox="0 0 138 138" fill="none" xmlns="http://www.w3.org/2000/svg">
<g filter="url(#filter0_d_91_81)">
<path d="M6 2H132V128H6V2Z" fill="white"/>
<path d="M132 1L132.103 1.00488C132.607 1.05621 133 1.48232 133 2V128C133 128.552 132.552 129 132 129H6C5.44772 129 5 128.552 5 128V2C5 1.44772 5.44772 1 6 1H132Z" stroke="white" stroke-width="2" stroke-linejoin="round"/>
</g>
<g filter="url(#filter1_d_91_81)">
<path d="M9 5H129V125H9V5Z" fill="black"/>
<path d="M129 4L129.103 4.00488C129.607 4.05622 130 4.48232 130 5V125C130 125.552 129.552 126 129 126H9C8.44772 126 8 125.552 8 125V5C8 4.44772 8.44772 4 9 4H129Z" stroke="black" stroke-width="2" stroke-linejoin="round"/>
</g>
<path d="M69 77.4648C74.6514 77.4648 79.2328 72.9157 79.2328 67.304C79.2328 61.6923 74.6514 57.1431 69 57.1431C63.3486 57.1431 58.7673 61.6923 58.7673 67.304C58.7673 72.9157 63.3486 77.4648 69 77.4648Z" fill="white"/>
<path d="M107.867 50.5474C105.892 49.8344 103.827 49.1213 101.673 48.4974C102.212 46.3583 102.66 44.2192 103.019 42.1692C104.904 30.4039 102.84 22.1148 97.0952 18.9061C95.3898 17.9256 93.5048 17.48 91.3505 17.48C85.0672 17.48 77.0785 22.1148 69 29.8691C60.9215 22.1148 52.9327 17.48 46.6495 17.48C44.4952 17.48 42.6102 17.9256 40.9047 18.9061C35.16 22.2039 33.0955 30.493 34.9805 42.1692C35.3396 44.2192 35.7884 46.3583 36.3269 48.4974C34.1727 49.1213 32.1082 49.7453 30.1334 50.5474C18.9133 54.8257 12.8095 60.7083 12.8095 67.304C12.8095 73.8996 19.003 79.7823 30.1334 84.0605C32.1082 84.7736 34.1727 85.4866 36.3269 86.1105C35.7884 88.2497 35.3396 90.3888 34.9805 92.4388C33.0955 104.204 35.16 112.493 40.9047 115.702C42.6102 116.682 44.4952 117.128 46.6495 117.128C53.0225 117.128 61.0112 112.493 69 104.739C77.0785 112.493 85.0672 117.128 91.3505 117.128C93.5048 117.128 95.3898 116.682 97.0952 115.702C102.84 112.404 104.904 104.115 103.019 92.4388C102.66 90.3888 102.212 88.2497 101.673 86.1105C103.827 85.4866 105.892 84.8627 107.867 84.0605C119.087 79.7823 125.19 73.8996 125.19 67.304C125.19 60.7083 119.087 54.8257 107.867 50.5474ZM94.5819 23.3626C98.2621 25.5017 99.5188 32.0974 97.9928 41.4561C97.7236 43.3279 97.2747 45.2887 96.7362 47.3387C92.0686 46.2692 87.1317 45.5561 81.9256 45.1105C78.8737 40.8322 75.7321 36.9996 72.5904 33.5235C79.2328 27.017 85.9648 22.5604 91.4403 22.5604C92.6072 22.5604 93.6843 22.8278 94.5819 23.3626ZM84.5287 76.217C82.913 79.0692 81.028 81.9214 79.0532 84.7736C75.7321 85.041 72.4109 85.1301 69 85.1301C65.4993 85.1301 62.1781 85.041 58.9467 84.7736C56.972 81.9214 55.1768 79.0692 53.5611 76.217C51.8556 73.2757 50.2399 70.2453 48.8037 67.304C50.2399 64.3627 51.8556 61.3322 53.5611 58.3909C55.1768 55.5387 57.0618 52.6866 59.0365 49.8344C62.3577 49.567 65.6788 49.4779 69.0897 49.4779C72.5904 49.4779 75.9116 49.567 79.143 49.8344C81.1177 52.6866 82.913 55.5387 84.5287 58.3909C86.2341 61.3322 87.8498 64.3627 89.286 67.304C87.7601 70.2453 86.2341 73.1866 84.5287 76.217ZM91.9788 73.2757C93.3253 76.3953 94.4024 79.4257 95.3898 82.4562C92.3379 83.1692 89.1065 83.704 85.6956 84.1497C86.7727 82.4562 87.9396 80.6736 88.927 78.8018C90.0041 76.9301 90.9915 75.0583 91.9788 73.2757ZM69 97.4301C66.8457 95.1127 64.7812 92.6171 62.8065 90.0323C64.871 90.1214 66.9355 90.2105 69 90.2105C71.0645 90.2105 73.129 90.1214 75.1935 90.0323C73.2188 92.6171 71.1543 95.1127 69 97.4301ZM52.3044 84.0605C48.8935 83.6149 45.6621 83.0801 42.6102 82.3671C43.5976 79.4257 44.6747 76.3062 46.0211 73.1866C47.0085 74.9692 47.9959 76.841 49.073 78.6236C50.1501 80.5844 51.2273 82.2779 52.3044 84.0605ZM46.0211 61.3322C44.6747 58.2127 43.5976 55.1822 42.6102 52.1518C45.6621 51.4387 48.8935 50.904 52.3044 50.4583C51.2273 52.1518 50.0604 53.9344 49.073 55.8061C47.9959 57.6779 47.0085 59.5496 46.0211 61.3322ZM69 37.1778C71.1543 39.4952 73.2188 41.9909 75.1935 44.5757C73.129 44.4865 71.0645 44.3974 69 44.3974C66.9355 44.3974 64.871 44.4865 62.8065 44.5757C64.7812 41.9909 66.8457 39.4952 69 37.1778ZM88.927 55.8953L85.6956 50.5474C89.1065 50.9931 92.3379 51.5279 95.3898 52.2409C94.4024 55.1822 93.3253 58.3018 91.9788 61.4214C90.9915 59.5496 90.0041 57.6779 88.927 55.8953ZM40.0071 41.4561C38.4812 32.0974 39.7379 25.5017 43.4181 23.3626C44.3157 22.8278 45.3928 22.5604 46.5597 22.5604C51.9454 22.5604 58.6775 26.9278 65.4095 33.5235C62.2679 36.9104 59.1263 40.8322 56.0744 45.1105C50.8682 45.5561 45.9314 46.3583 41.2638 47.3387C40.7252 45.2887 40.3662 43.3279 40.0071 41.4561ZM17.8361 67.304C17.8361 63.1148 22.9525 58.6583 31.9286 55.3605C33.7239 54.6474 35.6986 54.0235 37.6733 53.4887C39.1095 57.9453 40.9047 62.6692 43.059 67.3931C40.9047 72.117 39.0198 76.7518 37.6733 81.2084C25.2863 77.6431 17.8361 72.2953 17.8361 67.304ZM43.4181 111.245C39.7379 109.106 38.4812 102.511 40.0071 93.1519C40.2764 91.2801 40.7252 89.3192 41.2638 87.2692C45.9314 88.3388 50.8682 89.0518 56.0744 89.4975C59.1263 93.7758 62.2679 97.6084 65.4095 101.084C58.7672 107.591 52.0351 112.048 46.5597 112.048C45.3928 112.048 44.3157 111.78 43.4181 111.245ZM97.9928 93.1519C99.5188 102.511 98.2621 109.106 94.5819 111.245C93.6843 111.78 92.6072 112.048 91.4403 112.048C86.0546 112.048 79.3225 107.68 72.5904 101.084C75.7321 97.6975 78.8737 93.7758 81.9256 89.4975C87.1317 89.0518 92.0686 88.2497 96.7362 87.2692C97.2747 89.3192 97.6338 91.2801 97.9928 93.1519ZM106.071 79.2475C104.276 79.9605 102.301 80.5844 100.327 81.1192C98.8904 76.6627 97.0952 71.9388 94.941 67.2149C97.0952 62.4909 98.9802 57.8561 100.327 53.3996C112.714 56.9648 120.164 62.3127 120.164 67.304C120.164 71.4931 114.958 75.9497 106.071 79.2475Z" fill="white"/>
<defs>
<filter id="filter0_d_91_81" x="0" y="0" width="138" height="138" filterUnits="userSpaceOnUse" color-interpolation-filters="sRGB">
<feFlood flood-opacity="0" result="BackgroundImageFix"/>
<feColorMatrix in="SourceAlpha" type="matrix" values="0 0 0 0 0 0 0 0 0 0 0 0 0 0 0 0 0 0 127 0" result="hardAlpha"/>
<feOffset dy="4"/>
<feGaussianBlur stdDeviation="2"/>
<feComposite in2="hardAlpha" operator="out"/>
<feColorMatrix type="matrix" values="0 0 0 0 0 0 0 0 0 0 0 0 0 0 0 0 0 0 0.25 0"/>
<feBlend mode="normal" in2="BackgroundImageFix" result="effect1_dropShadow_91_81"/>
<feBlend mode="normal" in="SourceGraphic" in2="effect1_dropShadow_91_81" result="shape"/>
</filter>
<filter id="filter1_d_91_81" x="3" y="3" width="132" height="132" filterUnits="userSpaceOnUse" color-interpolation-filters="sRGB">
<feFlood flood-opacity="0" result="BackgroundImageFix"/>
<feColorMatrix in="SourceAlpha" type="matrix" values="0 0 0 0 0 0 0 0 0 0 0 0 0 0 0 0 0 0 127 0" result="hardAlpha"/>
<feOffset dy="4"/>
<feGaussianBlur stdDeviation="2"/>
<feComposite in2="hardAlpha" operator="out"/>
<feColorMatrix type="matrix" values="0 0 0 0 0 0 0 0 0 0 0 0 0 0 0 0 0 0 0.25 0"/>
<feBlend mode="normal" in2="BackgroundImageFix" result="effect1_dropShadow_91_81"/>
<feBlend mode="normal" in="SourceGraphic" in2="effect1_dropShadow_91_81" result="shape"/>
</filter>
</defs>
</svg>
