<svg width="134" height="134" viewBox="0 0 134 134" fill="none" xmlns="http://www.w3.org/2000/svg">
<g filter="url(#filter0_d_122_106)">
<path d="M4 25C4 11.1929 15.1929 0 29 0H105C118.807 0 130 11.1929 130 25V101C130 114.807 118.807 126 105 126H29C15.1929 126 4 114.807 4 101V25Z" fill="white"/>
</g>
<g filter="url(#filter1_d_122_106)">
<path d="M7 28C7 14.1929 18.1929 3 32 3H102C115.807 3 127 14.1929 127 28V98C127 111.807 115.807 123 102 123H32C18.1929 123 7 111.807 7 98V28Z" fill="black"/>
</g>
<path d="M67.0004 53.8328C71.5261 53.833 75.1946 57.7132 75.1948 62.4998C75.1948 67.2864 71.5262 71.1675 67.0004 71.1677C62.4745 71.1677 58.8051 67.2866 58.8051 62.4998C58.8053 57.7131 62.4746 53.8328 67.0004 53.8328Z" fill="white"/>
<path d="M67.0004 53.8328C71.5261 53.833 75.1946 57.7132 75.1948 62.4998C75.1948 67.2864 71.5262 71.1675 67.0004 71.1677C62.4745 71.1677 58.8051 67.2866 58.8051 62.4998C58.8053 57.7131 62.4746 53.8328 67.0004 53.8328Z" stroke="black"/>
<path d="M84.8994 20C86.6246 20 88.1342 20.3805 89.5 21.2168C94.1005 23.9539 95.7536 31.0241 94.2441 41.0596C93.9566 42.8082 93.5973 44.6333 93.166 46.458C94.8912 46.9902 96.5445 47.5988 98.126 48.207C107.112 51.8564 112 56.8739 112 62.5C112 68.1261 107.112 73.1436 98.126 76.793C96.5445 77.4772 94.8912 78.0098 93.166 78.542C93.5973 80.3667 93.9566 82.1918 94.2441 83.9404C95.7536 93.8999 94.1005 100.97 89.5 103.783C88.1342 104.62 86.6246 105 84.8994 105C79.8675 105 73.4696 101.046 67 94.4316C60.6022 101.046 54.2044 105 49.1006 105C47.3754 105 45.8658 104.62 44.5 103.783C39.8995 101.046 38.2464 93.9759 39.7559 83.9404C40.0434 82.1918 40.4027 80.3667 40.834 78.542C39.1088 78.0098 37.4555 77.4012 35.874 76.793C26.9603 73.1436 22 68.1261 22 62.5C22 56.8739 26.8884 51.8564 35.874 48.207C37.4555 47.5228 39.1088 46.9902 40.834 46.458C40.4027 44.6333 40.0434 42.8082 39.7559 41.0596C38.2464 31.1001 39.8995 24.0299 44.5 21.2168C45.8658 20.3805 47.3754 20 49.1006 20C54.1325 20 60.5304 23.9539 67 30.5684C73.4696 23.9539 79.8675 20 84.8994 20ZM44.7871 79.5303C44.3558 81.2788 43.9969 82.9514 43.7812 84.5479C42.5592 92.5309 43.5654 98.1577 46.5127 99.9824C47.2314 100.438 48.094 100.666 49.0283 100.666C53.4133 100.666 58.8055 96.8645 64.125 91.3145C61.609 88.3493 59.0925 85.08 56.6484 81.4307C52.4792 81.0505 48.5251 80.4426 44.7871 79.5303ZM89.2129 79.5303C85.4749 80.3666 81.5208 81.0505 77.3516 81.4307C74.9075 85.08 72.391 88.4254 69.875 91.3145C75.2664 96.9406 80.6586 100.666 84.9717 100.666C85.906 100.666 86.7686 100.438 87.4873 99.9824C90.4346 98.1577 91.4408 92.5309 90.2188 84.5479C89.9312 82.9514 89.6442 81.2788 89.2129 79.5303ZM71.96 81.8877C70.3066 81.9637 68.6533 82.0391 67 82.0391C65.3467 82.0391 63.6934 81.9637 62.04 81.8877C63.6214 84.0923 65.2749 86.2207 67 88.1973C68.7251 86.2207 70.3786 84.0923 71.96 81.8877ZM67.0723 47.2939C64.3406 47.2939 61.6803 47.3705 59.0205 47.5986C57.4391 50.0315 55.9296 52.4646 54.6357 54.8975C53.27 57.4063 51.9763 59.9912 50.8262 62.5C51.9763 65.0088 53.27 67.5937 54.6357 70.1025C55.9297 72.5354 57.3678 74.9685 58.9492 77.4014C61.537 77.6294 64.1966 77.7061 67 77.7061C69.7315 77.7061 72.3911 77.6294 75.0508 77.4014C76.6322 74.9685 78.1426 72.5354 79.4365 70.1025C80.8022 67.5177 82.0241 65.0088 83.2461 62.5C82.096 59.9912 80.8023 57.4063 79.4365 54.8975C78.1426 52.4646 76.7045 50.0315 75.123 47.5986C72.5353 47.3706 69.8756 47.294 67.0723 47.2939ZM85.4023 67.5938C84.6116 69.1143 83.8206 70.711 82.958 72.3076C82.1673 73.9042 81.2327 75.4246 80.3701 76.8691C83.1016 76.489 85.6898 76.033 88.1338 75.4248C87.3431 72.8399 86.4806 70.2547 85.4023 67.5938ZM48.5977 67.5176C47.5194 70.1785 46.6569 72.8398 45.8662 75.3486C48.31 75.9568 50.8976 76.4129 53.6289 76.793C52.7664 75.2726 51.9045 73.8277 51.042 72.1553C50.1794 70.6347 49.3884 69.0381 48.5977 67.5176ZM41.9121 50.7158C40.3307 51.172 38.7492 51.7043 37.3115 52.3125C30.1231 55.1256 26.0254 58.9267 26.0254 62.5C26.0254 66.7576 31.992 71.3192 41.9121 74.3604C42.9904 70.5589 44.5004 66.6057 46.2256 62.5762C44.5004 58.5467 43.0623 54.5172 41.9121 50.7158ZM92.0879 50.6396C91.0096 54.4411 89.4996 58.3943 87.7744 62.4238C89.4996 66.4533 90.9377 70.4828 92.0879 74.2842C93.6693 73.828 95.2508 73.2957 96.6885 72.6875C103.805 69.8744 107.975 66.0733 107.975 62.5C107.975 58.2424 102.008 53.6808 92.0879 50.6396ZM82.958 52.7686C83.8206 54.2891 84.6116 55.8858 85.4023 57.4824C86.4806 54.8215 87.3431 52.1602 88.1338 49.6514C85.6898 49.0432 83.1016 48.5872 80.3701 48.207L82.958 52.7686ZM53.6289 48.1309C50.8976 48.511 48.31 48.967 45.8662 49.5752C46.6569 52.1601 47.5194 54.7453 48.5977 57.4062C49.3884 55.8857 50.1794 54.289 51.042 52.6924C51.8326 51.096 52.7664 49.5752 53.6289 48.1309ZM49.0283 24.334C48.094 24.3341 47.2314 24.5615 46.5127 25.0176C43.5654 26.8423 42.5592 32.4691 43.7812 40.4521C44.0688 42.0486 44.3558 43.7212 44.7871 45.4697C48.5251 44.6334 52.4792 43.9495 56.6484 43.5693C59.0925 39.92 61.609 36.5746 64.125 33.6855C58.7336 28.0594 53.3414 24.334 49.0283 24.334ZM84.9717 24.334C80.5867 24.334 75.1945 28.1355 69.875 33.6855C72.391 36.6507 74.9075 39.92 77.3516 43.5693C81.5208 43.9495 85.4749 44.5574 89.2129 45.4697C89.6442 43.7212 90.0031 42.0486 90.2188 40.4521C91.4408 32.4691 90.4346 26.8423 87.4873 25.0176C86.7686 24.5615 85.906 24.3341 84.9717 24.334ZM67 36.8027C65.2749 38.7793 63.6214 40.9077 62.04 43.1123C63.6934 43.0363 65.3467 42.9609 67 42.9609C68.6533 42.9609 70.3066 43.0363 71.96 43.1123C70.3786 40.9077 68.7251 38.7793 67 36.8027Z" fill="white"/>
<path d="M84.8994 20C86.6246 20 88.1342 20.3805 89.5 21.2168C94.1005 23.9539 95.7536 31.0241 94.2441 41.0596C93.9566 42.8082 93.5973 44.6333 93.166 46.458C94.8912 46.9902 96.5445 47.5988 98.126 48.207C107.112 51.8564 112 56.8739 112 62.5C112 68.1261 107.112 73.1436 98.126 76.793C96.5445 77.4772 94.8912 78.0098 93.166 78.542C93.5973 80.3667 93.9566 82.1918 94.2441 83.9404C95.7536 93.8999 94.1005 100.97 89.5 103.783C88.1342 104.62 86.6246 105 84.8994 105C79.8675 105 73.4696 101.046 67 94.4316C60.6022 101.046 54.2044 105 49.1006 105C47.3754 105 45.8658 104.62 44.5 103.783C39.8995 101.046 38.2464 93.9759 39.7559 83.9404C40.0434 82.1918 40.4027 80.3667 40.834 78.542C39.1088 78.0098 37.4555 77.4012 35.874 76.793C26.9603 73.1436 22 68.1261 22 62.5C22 56.8739 26.8884 51.8564 35.874 48.207C37.4555 47.5228 39.1088 46.9902 40.834 46.458C40.4027 44.6333 40.0434 42.8082 39.7559 41.0596C38.2464 31.1001 39.8995 24.0299 44.5 21.2168C45.8658 20.3805 47.3754 20 49.1006 20C54.1325 20 60.5304 23.9539 67 30.5684C73.4696 23.9539 79.8675 20 84.8994 20ZM44.7871 79.5303C44.3558 81.2788 43.9969 82.9514 43.7812 84.5479C42.5592 92.5309 43.5654 98.1577 46.5127 99.9824C47.2314 100.438 48.094 100.666 49.0283 100.666C53.4133 100.666 58.8055 96.8645 64.125 91.3145C61.609 88.3493 59.0925 85.08 56.6484 81.4307C52.4792 81.0505 48.5251 80.4426 44.7871 79.5303ZM89.2129 79.5303C85.4749 80.3666 81.5208 81.0505 77.3516 81.4307C74.9075 85.08 72.391 88.4254 69.875 91.3145C75.2664 96.9406 80.6586 100.666 84.9717 100.666C85.906 100.666 86.7686 100.438 87.4873 99.9824C90.4346 98.1577 91.4408 92.5309 90.2188 84.5479C89.9312 82.9514 89.6442 81.2788 89.2129 79.5303ZM71.96 81.8877C70.3066 81.9637 68.6533 82.0391 67 82.0391C65.3467 82.0391 63.6934 81.9637 62.04 81.8877C63.6214 84.0923 65.2749 86.2207 67 88.1973C68.7251 86.2207 70.3786 84.0923 71.96 81.8877ZM67.0723 47.2939C64.3406 47.2939 61.6803 47.3705 59.0205 47.5986C57.4391 50.0315 55.9296 52.4646 54.6357 54.8975C53.27 57.4063 51.9763 59.9912 50.8262 62.5C51.9763 65.0088 53.27 67.5937 54.6357 70.1025C55.9297 72.5354 57.3678 74.9685 58.9492 77.4014C61.537 77.6294 64.1966 77.7061 67 77.7061C69.7315 77.7061 72.3911 77.6294 75.0508 77.4014C76.6322 74.9685 78.1426 72.5354 79.4365 70.1025C80.8022 67.5177 82.0241 65.0088 83.2461 62.5C82.096 59.9912 80.8023 57.4063 79.4365 54.8975C78.1426 52.4646 76.7045 50.0315 75.123 47.5986C72.5353 47.3706 69.8756 47.294 67.0723 47.2939ZM85.4023 67.5938C84.6116 69.1143 83.8206 70.711 82.958 72.3076C82.1673 73.9042 81.2327 75.4246 80.3701 76.8691C83.1016 76.489 85.6898 76.033 88.1338 75.4248C87.3431 72.8399 86.4806 70.2547 85.4023 67.5938ZM48.5977 67.5176C47.5194 70.1785 46.6569 72.8398 45.8662 75.3486C48.31 75.9568 50.8976 76.4129 53.6289 76.793C52.7664 75.2726 51.9045 73.8277 51.042 72.1553C50.1794 70.6347 49.3884 69.0381 48.5977 67.5176ZM41.9121 50.7158C40.3307 51.172 38.7492 51.7043 37.3115 52.3125C30.1231 55.1256 26.0254 58.9267 26.0254 62.5C26.0254 66.7576 31.992 71.3192 41.9121 74.3604C42.9904 70.5589 44.5004 66.6057 46.2256 62.5762C44.5004 58.5467 43.0623 54.5172 41.9121 50.7158ZM92.0879 50.6396C91.0096 54.4411 89.4996 58.3943 87.7744 62.4238C89.4996 66.4533 90.9377 70.4828 92.0879 74.2842C93.6693 73.828 95.2508 73.2957 96.6885 72.6875C103.805 69.8744 107.975 66.0733 107.975 62.5C107.975 58.2424 102.008 53.6808 92.0879 50.6396ZM82.958 52.7686C83.8206 54.2891 84.6116 55.8858 85.4023 57.4824C86.4806 54.8215 87.3431 52.1602 88.1338 49.6514C85.6898 49.0432 83.1016 48.5872 80.3701 48.207L82.958 52.7686ZM53.6289 48.1309C50.8976 48.511 48.31 48.967 45.8662 49.5752C46.6569 52.1601 47.5194 54.7453 48.5977 57.4062C49.3884 55.8857 50.1794 54.289 51.042 52.6924C51.8326 51.096 52.7664 49.5752 53.6289 48.1309ZM49.0283 24.334C48.094 24.3341 47.2314 24.5615 46.5127 25.0176C43.5654 26.8423 42.5592 32.4691 43.7812 40.4521C44.0688 42.0486 44.3558 43.7212 44.7871 45.4697C48.5251 44.6334 52.4792 43.9495 56.6484 43.5693C59.0925 39.92 61.609 36.5746 64.125 33.6855C58.7336 28.0594 53.3414 24.334 49.0283 24.334ZM84.9717 24.334C80.5867 24.334 75.1945 28.1355 69.875 33.6855C72.391 36.6507 74.9075 39.92 77.3516 43.5693C81.5208 43.9495 85.4749 44.5574 89.2129 45.4697C89.6442 43.7212 90.0031 42.0486 90.2188 40.4521C91.4408 32.4691 90.4346 26.8423 87.4873 25.0176C86.7686 24.5615 85.906 24.3341 84.9717 24.334ZM67 36.8027C65.2749 38.7793 63.6214 40.9077 62.04 43.1123C63.6934 43.0363 65.3467 42.9609 67 42.9609C68.6533 42.9609 70.3066 43.0363 71.96 43.1123C70.3786 40.9077 68.7251 38.7793 67 36.8027Z" stroke="black"/>
<defs>
<filter id="filter0_d_122_106" x="0" y="0" width="134" height="134" filterUnits="userSpaceOnUse" color-interpolation-filters="sRGB">
<feFlood flood-opacity="0" result="BackgroundImageFix"/>
<feColorMatrix in="SourceAlpha" type="matrix" values="0 0 0 0 0 0 0 0 0 0 0 0 0 0 0 0 0 0 127 0" result="hardAlpha"/>
<feOffset dy="4"/>
<feGaussianBlur stdDeviation="2"/>
<feComposite in2="hardAlpha" operator="out"/>
<feColorMatrix type="matrix" values="0 0 0 0 0 0 0 0 0 0 0 0 0 0 0 0 0 0 0.25 0"/>
<feBlend mode="normal" in2="BackgroundImageFix" result="effect1_dropShadow_122_106"/>
<feBlend mode="normal" in="SourceGraphic" in2="effect1_dropShadow_122_106" result="shape"/>
</filter>
<filter id="filter1_d_122_106" x="3" y="3" width="128" height="128" filterUnits="userSpaceOnUse" color-interpolation-filters="sRGB">
<feFlood flood-opacity="0" result="BackgroundImageFix"/>
<feColorMatrix in="SourceAlpha" type="matrix" values="0 0 0 0 0 0 0 0 0 0 0 0 0 0 0 0 0 0 127 0" result="hardAlpha"/>
<feOffset dy="4"/>
<feGaussianBlur stdDeviation="2"/>
<feComposite in2="hardAlpha" operator="out"/>
<feColorMatrix type="matrix" values="0 0 0 0 0 0 0 0 0 0 0 0 0 0 0 0 0 0 0.25 0"/>
<feBlend mode="normal" in2="BackgroundImageFix" result="effect1_dropShadow_122_106"/>
<feBlend mode="normal" in="SourceGraphic" in2="effect1_dropShadow_122_106" result="shape"/>
</filter>
</defs>
</svg>
