<svg width="138" height="138" viewBox="0 0 138 138" fill="none" xmlns="http://www.w3.org/2000/svg">
<g filter="url(#filter0_d_91_105)">
<path d="M6 2H132V128H6V2Z" fill="white"/>
<path d="M132 1L132.103 1.00488C132.607 1.05621 133 1.48232 133 2V128C133 128.552 132.552 129 132 129H6C5.44772 129 5 128.552 5 128V2C5 1.44772 5.44772 1 6 1H132Z" stroke="white" stroke-width="2" stroke-linejoin="round"/>
</g>
<g filter="url(#filter1_d_91_105)">
<path d="M9 5H129V125H9V5Z" fill="black"/>
<path d="M129 4L129.103 4.00488C129.607 4.05622 130 4.48232 130 5V125C130 125.552 129.552 126 129 126H9C8.44772 126 8 125.552 8 125V5C8 4.44772 8.44772 4 9 4H129Z" stroke="black" stroke-width="2" stroke-linejoin="round"/>
</g>
<path fill-rule="evenodd" clip-rule="evenodd" d="M17 57.444C17 58.0803 17.1731 58.5003 17.2701 58.9086C17.9024 61.5635 19.2613 63.8419 20.8737 65.9203C23.1702 68.8821 25.9826 71.2664 28.8637 73.5085C31.3625 75.4529 33.9124 77.3538 36.4212 79.2837C36.8519 79.615 37.2592 79.9961 37.7267 80.4025C37.3244 80.6379 36.9899 80.8452 36.642 81.0362C33.3311 82.8538 30.1457 84.8914 27.2095 87.3599C25.4399 88.848 23.7288 90.4294 22.5204 92.496C20.576 95.8199 19.8877 99.361 21.337 103.142C21.7602 104.246 22.4058 105.2 23.3165 105.906C23.6117 106.134 23.9429 106.36 24.2883 106.449C25.1731 106.674 26.0746 106.822 26.9703 107L29.5068 106.998C32.3117 106.728 34.8649 105.687 37.1722 103.964C40.7783 101.27 43.2078 97.6583 44.2523 93.0228C45.0116 89.6537 45.0426 86.2809 44.1478 82.9271C44.0621 82.6164 43.9633 82.3102 43.8517 82.0093C43.743 81.7078 43.615 81.4146 43.4645 81.0389L49.2149 77.4597L49.301 77.5394C49.1965 77.9096 49.0852 78.2789 48.9907 78.6528C48.3075 81.3539 47.8534 84.1021 48.0165 86.9055C48.1904 89.8926 48.9606 92.6888 50.5763 95.1844C51.8826 97.203 54.9953 97.2782 56.3836 95.2523C56.8761 94.5327 57.3537 93.7805 57.7124 92.9776C58.6499 90.882 59.518 88.7494 60.4137 86.6312L60.5701 86.2438C60.5057 87.2467 60.4304 88.1275 60.3961 89.0092C60.3426 90.386 60.417 91.7546 60.8519 93.0645C61.224 94.1851 61.8571 95.0224 63.043 95.17C63.8542 95.2704 64.5006 94.8685 65.0969 94.3589C66.0207 93.5688 66.7863 92.5836 67.3474 91.4632C68.9372 88.3031 70.5696 85.1621 72.0106 81.9224C73.5694 78.4183 74.9326 74.812 76.3802 71.2483L76.6194 70.6164C76.9614 72.0711 77.1997 73.4959 77.6388 74.8446C78.1489 76.4097 78.7803 77.9377 79.4678 79.4231C79.7931 80.1246 79.7555 80.58 79.3047 81.1683C77.418 83.6305 75.564 86.1225 73.7082 88.6118C73.2976 89.1612 72.8887 89.7207 72.5466 90.3208C72.3391 90.6998 72.2027 91.1194 72.1452 91.5555C72.0876 91.957 72.1759 92.3671 72.3915 92.6997C72.6072 93.0323 72.9334 93.2616 73.3018 93.3396C74.0453 93.513 74.8077 93.5718 75.5665 93.5143C78.1565 93.308 80.5081 92.324 82.5872 90.6566C85.2809 88.4968 86.1456 85.5495 85.4933 82.0563C85.3168 81.1086 85.0049 80.1871 84.7013 79.2738C84.565 78.8619 84.5558 78.5731 84.8042 78.1893C86.9576 74.8609 88.7975 71.3297 90.5085 67.7171C90.5763 67.575 90.6457 67.4328 90.7644 67.2808C91.3189 70.4037 92.1535 73.4135 93.6488 76.1445C92.8861 76.9402 92.1309 77.6616 91.4477 78.4564C89.9432 80.207 88.6386 82.1079 87.9578 84.4261C87.6651 85.4255 87.4402 86.4411 87.5706 87.5084C87.773 89.1658 89.0275 90.243 90.5336 89.8655C93.7567 89.0581 96.539 87.4142 98.5721 84.5022C99.9402 82.5415 100.065 80.3546 99.492 78.0635C99.3348 77.4407 99.1483 76.8279 98.9476 76.1137C99.7429 75.8467 100.518 75.5262 101.32 75.328C105.484 74.2997 109.603 74.4789 113.615 76.1065C115.958 77.0569 117.85 78.6474 118.973 81.1493C120.343 84.208 119.586 87.1101 116.922 89.0436C116.674 89.2237 116.389 89.3658 116.184 89.5912C116.118 89.6739 116.068 89.7705 116.039 89.8749C116.009 89.9793 116 90.0893 116.012 90.1977C116.03 90.309 116.301 90.4484 116.458 90.4466C117.333 90.4394 118.043 89.9424 118.725 89.4319C120.433 88.1529 121.679 86.4321 121.947 84.1664L122 83.9962L121.936 82.5207C121.91 82.4356 121.955 82.3514 121.949 82.2872C121.586 78.9877 119.958 76.4287 117.589 74.4228C114.846 72.101 111.607 71.1451 108.182 70.9939C105.404 70.8645 102.629 71.3267 100.016 72.3544C99.2654 72.6486 98.5219 72.9971 97.7676 73.3257C97.6664 73.1274 97.5576 72.9374 97.4682 72.7409C96.6938 71.0247 95.7554 69.3845 95.548 67.4165C95.4008 66.0189 95.2202 64.6231 95.5271 63.2409C95.8223 61.9111 96.207 60.604 96.5691 59.2924C96.7556 58.6171 96.6243 58.2387 96.0289 57.9346C95.8214 57.8226 95.6 57.7439 95.3716 57.701C93.9081 57.4711 92.4646 57.6024 91.0471 58.0486C90.5453 58.2071 90.1807 58.5112 90.0695 59.1123C90.0059 59.4571 89.8763 59.7875 89.786 60.1279C89.4155 61.5427 89.1529 62.9847 88.5541 64.3325C87.0538 67.7135 85.3411 70.9667 83.5882 74.1965C83.3984 74.545 83.1985 74.8872 82.9593 75.3099C82.3438 73.9159 81.6873 72.6649 81.4883 71.1985C81.2633 69.5401 81.086 67.8845 81.4674 66.2389C81.7509 65.0114 82.1213 63.8066 82.4625 62.5955C82.624 62.0198 82.5495 61.7174 82.0678 61.4142C81.8245 61.2612 81.5493 61.1254 81.275 61.0811C79.7744 60.8336 78.241 60.9694 76.7975 61.4775C76.3434 61.6369 76.105 61.9546 75.9662 62.4615C75.5581 63.9569 75.2102 65.4885 74.6373 66.9105C72.3175 72.6676 69.9307 78.3948 67.5464 84.1211C67.0488 85.3169 66.4659 86.471 65.9048 87.6351C65.7626 87.9302 65.5552 88.19 65.3779 88.467C65.2357 88.285 65.1805 88.1601 65.1814 88.0352C65.1856 87.2992 65.1044 86.5416 65.2341 85.8301C65.6321 83.6783 66.0721 81.5358 66.5537 79.4041C66.9468 77.6426 67.4042 75.8974 67.84 74.1476C67.9863 73.5619 67.9888 73.0143 67.5999 72.5219C66.9468 71.6972 65.582 71.5162 64.7724 72.1516L64.4145 72.3707L64.4839 71.7461C64.6545 70.4073 64.6888 69.0731 64.3493 67.7542C63.9261 66.1103 62.8423 65.1644 61.2667 65.2169C60.5324 65.2414 59.7614 65.3771 59.0815 65.6668C56.2222 66.8798 54.0235 69.0278 52.1519 71.6121C51.9784 71.8521 51.7634 72.0532 51.5188 72.2041C49.0995 73.6561 46.6725 75.0899 44.2464 76.5292L41.5461 78.1305C40.8218 77.3828 40.1637 76.607 39.4168 75.949C37.1363 73.9358 34.8189 71.9724 32.5224 69.9819C30.4869 68.2177 28.5149 66.3801 27.0063 64.0438C25.8839 62.3058 25.1606 60.404 25.0911 58.255C25.0033 55.5168 25.7209 53.0148 27.0088 50.6858C28.6563 47.7058 30.9034 45.3143 33.3738 43.1482C35.9872 40.858 38.8139 38.9136 41.7434 37.1385C45.8421 34.6556 50.0578 32.4578 54.578 31.0067C59.2127 29.5186 63.9152 28.6668 68.7657 29.2606C70.6725 29.4941 72.524 29.9667 74.2242 30.976C75.5263 31.7481 76.5943 32.7592 77.091 34.3397C77.5811 35.8948 77.566 37.4708 77.2265 39.0503C76.5366 42.2493 74.9183 44.8861 72.882 47.2424C69.5418 51.1049 65.4674 53.7345 60.8803 55.4715C58.2429 56.4716 55.4988 57.1052 52.7139 57.3571C50.4317 57.5644 48.1971 57.3453 46.0361 56.4863C44.6052 55.9169 43.3591 55.0461 42.3573 53.7824C42.1783 53.5561 41.9491 53.3108 41.6155 53.5227C41.2885 53.7308 41.2308 54.0676 41.3403 54.4088C41.5235 54.9755 41.6924 55.5657 41.9776 56.0726C42.6943 57.3444 43.7396 58.2668 44.8904 59.0579C47.1007 60.5796 49.5711 61.091 52.1327 61.2096C56.0198 61.3915 59.8124 60.7633 63.5514 59.6346C68.8895 58.0233 73.5309 55.1774 77.2533 50.6876C80.3526 46.9491 82.5662 42.73 83.0404 37.6355C83.2721 35.1489 83.0254 32.713 81.9499 30.4446C80.7833 27.987 78.9284 26.1594 76.7105 24.9003C73.4808 23.0672 69.9951 22 66.3973 22H62.7929C58.4358 22 54.2234 23.3515 50.1289 24.9636C47.0296 26.1847 43.9905 27.6258 41.0401 29.2208C34.6149 32.6958 28.6312 36.886 23.7163 42.6476C21.2676 45.518 19.1944 48.6853 18.0019 52.4147C17.6419 53.5281 17.3319 54.6597 17.0728 55.8056M40.3543 88.4045C40.0758 92.4408 38.3857 95.7131 35.6234 98.3635C34.0696 99.8535 32.2874 100.914 30.2118 101.287C29.4591 101.422 28.6889 101.455 27.9588 101.117C26.9176 100.636 26.6843 99.6353 26.6642 98.5699C26.6333 96.8717 27.1827 95.3365 27.9362 93.8755C28.9197 91.971 30.3615 90.519 31.9011 89.1631C34.3263 87.0259 36.9573 85.2173 39.6518 83.5101L39.8551 83.4196C40.2715 85.0851 40.4697 86.7299 40.3543 88.4045ZM61.3938 70.8626C61.1973 72.1517 60.9514 73.4416 60.6035 74.6907C59.4009 79.0149 57.8563 83.205 56.1862 87.3391C55.8776 88.104 55.4285 88.8019 55.038 89.5269C54.9715 89.6384 54.892 89.74 54.8013 89.8293C54.3179 90.3461 53.8596 90.319 53.6154 89.6428C53.3311 88.8571 53.1563 88.0162 53.0058 87.1843C52.9046 86.6258 52.9288 86.0392 52.8971 85.4671C52.9297 81.3992 54.0762 77.7023 56.0215 74.2608C56.8235 72.8414 57.6966 71.489 59.0304 70.5911C59.4454 70.3118 59.8944 70.0967 60.3643 69.952C61.0752 69.7357 61.5117 70.0914 61.3938 70.8626ZM75.7479 90.6575L80.907 84.1374C81.122 86.5588 77.3193 91.3926 75.7479 90.6575ZM92.2254 86.27C91.8608 86.4963 91.4636 86.6593 91.0897 86.8684C90.7477 87.0603 90.6348 86.8666 90.6248 86.5479C90.6197 86.3274 90.646 86.1073 90.7025 85.8953C91.3992 83.2358 92.6812 80.9656 94.5888 79.119L94.7226 79.0447C95.63 81.792 94.5813 84.809 92.2254 86.27Z" fill="#F5F5F5"/>
<defs>
<filter id="filter0_d_91_105" x="0" y="0" width="138" height="138" filterUnits="userSpaceOnUse" color-interpolation-filters="sRGB">
<feFlood flood-opacity="0" result="BackgroundImageFix"/>
<feColorMatrix in="SourceAlpha" type="matrix" values="0 0 0 0 0 0 0 0 0 0 0 0 0 0 0 0 0 0 127 0" result="hardAlpha"/>
<feOffset dy="4"/>
<feGaussianBlur stdDeviation="2"/>
<feComposite in2="hardAlpha" operator="out"/>
<feColorMatrix type="matrix" values="0 0 0 0 0 0 0 0 0 0 0 0 0 0 0 0 0 0 0.25 0"/>
<feBlend mode="normal" in2="BackgroundImageFix" result="effect1_dropShadow_91_105"/>
<feBlend mode="normal" in="SourceGraphic" in2="effect1_dropShadow_91_105" result="shape"/>
</filter>
<filter id="filter1_d_91_105" x="3" y="3" width="132" height="132" filterUnits="userSpaceOnUse" color-interpolation-filters="sRGB">
<feFlood flood-opacity="0" result="BackgroundImageFix"/>
<feColorMatrix in="SourceAlpha" type="matrix" values="0 0 0 0 0 0 0 0 0 0 0 0 0 0 0 0 0 0 127 0" result="hardAlpha"/>
<feOffset dy="4"/>
<feGaussianBlur stdDeviation="2"/>
<feComposite in2="hardAlpha" operator="out"/>
<feColorMatrix type="matrix" values="0 0 0 0 0 0 0 0 0 0 0 0 0 0 0 0 0 0 0.25 0"/>
<feBlend mode="normal" in2="BackgroundImageFix" result="effect1_dropShadow_91_105"/>
<feBlend mode="normal" in="SourceGraphic" in2="effect1_dropShadow_91_105" result="shape"/>
</filter>
</defs>
</svg>
