<svg width="134" height="134" viewBox="0 0 134 134" fill="none" xmlns="http://www.w3.org/2000/svg">
<g filter="url(#filter0_d_122_132)">
<path d="M4 25C4 11.1929 15.1929 0 29 0H105C118.807 0 130 11.1929 130 25V101C130 114.807 118.807 126 105 126H29C15.1929 126 4 114.807 4 101V25Z" fill="white"/>
</g>
<g filter="url(#filter1_d_122_132)">
<path d="M7 28C7 14.1929 18.1929 3 32 3H102C115.807 3 127 14.1929 127 28V98C127 111.807 115.807 123 102 123H32C18.1929 123 7 111.807 7 98V28Z" fill="black"/>
</g>
<path fill-rule="evenodd" clip-rule="evenodd" d="M17 56.359C17 56.958 17.1649 57.3533 17.2573 57.7375C17.8594 60.2363 19.1537 62.3806 20.6892 64.3367C22.8764 67.1243 25.5549 69.3683 28.2987 71.4786C30.6786 73.3086 33.107 75.0977 35.4964 76.9141C35.9066 77.2259 36.2945 77.5846 36.7397 77.9671C36.3566 78.1886 36.038 78.3837 35.7067 78.5635C32.5535 80.2742 29.5197 82.1919 26.7233 84.5152C25.038 85.9158 23.4084 87.4042 22.2575 89.3492C20.4057 92.4775 19.7502 95.8104 21.1305 99.369C21.5335 100.408 22.1484 101.306 23.0157 101.97C23.2969 102.185 23.6123 102.398 23.9412 102.481C24.7839 102.693 25.6425 102.832 26.4955 103L28.9112 102.998C31.5826 102.744 34.0142 101.765 36.2117 100.143C39.646 97.6071 41.9598 94.2079 42.9546 89.845C43.6778 86.674 43.7072 83.4997 42.855 80.3432C42.7734 80.0508 42.6794 79.7625 42.5731 79.4793C42.4695 79.1956 42.3477 78.9196 42.2043 78.566L47.6808 75.1974L47.7629 75.2724C47.6633 75.6208 47.5574 75.9684 47.4674 76.3203C46.8167 78.8625 46.3842 81.449 46.5395 84.0875C46.7051 86.899 47.4387 89.5306 48.9775 91.8795C50.2216 93.7793 53.186 93.85 54.5082 91.9434C54.9773 91.2661 55.4321 90.5581 55.7738 89.8024C56.6666 87.8301 57.4933 85.8229 58.3464 83.8294L58.4953 83.4647C58.434 84.4087 58.3623 85.2377 58.3296 86.0675C58.2787 87.3633 58.3495 88.6514 58.7637 89.8842C59.1181 90.9389 59.7211 91.727 60.8505 91.8658C61.623 91.9604 62.2387 91.5821 62.8066 91.1025C63.6864 90.3588 64.4156 89.4316 64.9499 88.3771C66.464 85.4029 68.0187 82.4467 69.391 79.3975C70.8756 76.0996 72.1739 72.7054 73.5526 69.3513L73.7804 68.7566C74.1061 70.1257 74.3331 71.4667 74.7512 72.7361C75.2371 74.2091 75.8384 75.6472 76.4931 77.0453C76.803 77.7055 76.7671 78.1341 76.3378 78.6878C74.541 81.0052 72.7752 83.3506 71.0078 85.6934C70.6168 86.2106 70.2273 86.7371 69.9015 87.3019C69.7039 87.6586 69.574 88.0535 69.5192 88.464C69.4644 88.8419 69.5485 89.2278 69.7539 89.5409C69.9592 89.8539 70.2699 90.0698 70.6208 90.1432C71.3289 90.3063 72.055 90.3617 72.7776 90.3076C75.2443 90.1134 77.4839 89.1873 79.464 87.618C82.0294 85.5852 82.8529 82.8113 82.2317 79.5236C82.0636 78.6316 81.7666 77.7643 81.4774 76.9047C81.3476 76.5171 81.3388 76.2453 81.5754 75.8841C83.6263 72.7514 85.3785 69.428 87.0081 66.0278C87.0726 65.8941 87.1387 65.7603 87.2518 65.6172C87.7799 68.5564 88.5748 71.3892 89.9989 73.9595C89.2725 74.7084 88.5533 75.3874 87.9026 76.1354C86.4697 77.7831 85.2272 79.5722 84.5789 81.754C84.3001 82.6946 84.0859 83.6505 84.2101 84.6549C84.4029 86.2148 85.5976 87.2287 87.032 86.8734C90.1016 86.1135 92.7515 84.5663 94.6877 81.8256C95.9907 79.9803 96.1094 77.9219 95.5638 75.7656C95.4141 75.1795 95.2365 74.6027 95.0453 73.9305C95.8027 73.6792 96.5411 73.3776 97.3049 73.1911C101.271 72.2232 105.193 72.3919 109.015 73.9237C111.246 74.8183 113.048 76.3152 114.117 78.67C115.422 81.5487 114.701 84.2801 112.164 86.0998C111.927 86.2694 111.656 86.4031 111.461 86.6153C111.398 86.6931 111.351 86.784 111.323 86.8823C111.295 86.9806 111.286 87.084 111.297 87.1861C111.314 87.2909 111.573 87.4221 111.722 87.4203C112.556 87.4135 113.232 86.9458 113.881 86.4653C115.507 85.2615 116.694 83.6419 116.95 81.5095L117 81.3493L116.939 79.9607C116.914 79.8806 116.957 79.8013 116.951 79.7409C116.606 76.6355 115.055 74.227 112.799 72.3391C110.187 70.1538 107.102 69.2542 103.84 69.1119C101.194 68.9901 98.5516 69.4252 96.0624 70.3924C95.348 70.6693 94.6399 70.9973 93.9215 71.3065C93.8251 71.12 93.7216 70.941 93.6363 70.7562C92.8988 69.1409 92.0052 67.5971 91.8076 65.745C91.6675 64.4296 91.4954 63.1159 91.7877 61.8149C92.0689 60.5634 92.4353 59.3332 92.7801 58.0987C92.9578 57.4632 92.8327 57.107 92.2656 56.8208C92.068 56.7154 91.8571 56.6413 91.6396 56.601C90.2458 56.3846 88.8711 56.5081 87.5211 56.9281C87.0432 57.0772 86.6959 57.3635 86.59 57.9292C86.5294 58.2538 86.406 58.5647 86.32 58.8851C85.9671 60.2167 85.717 61.5738 85.1468 62.8424C83.7179 66.0244 82.0867 69.0863 80.4173 72.1261C80.2365 72.4541 80.0462 72.7761 79.8184 73.174C79.2322 71.862 78.607 70.6846 78.4174 69.3044C78.2031 67.7437 78.0343 66.1854 78.3975 64.6366C78.6675 63.4814 79.0203 62.3474 79.3453 61.2075C79.499 60.6657 79.4281 60.3811 78.9694 60.0957C78.7376 59.9517 78.4755 59.8239 78.2143 59.7822C76.7851 59.5493 75.3248 59.6771 73.95 60.1553C73.5175 60.3053 73.2905 60.6043 73.1583 61.0814C72.7696 62.4888 72.4383 63.9303 71.8927 65.2687C69.6833 70.6872 67.4102 76.0775 65.1394 81.4669C64.6655 82.5923 64.1104 83.6786 63.576 84.7742C63.4406 85.0519 63.2431 85.2964 63.0742 85.5571C62.9388 85.3859 62.8862 85.2683 62.887 85.1507C62.891 84.4581 62.8138 83.745 62.9372 83.0754C63.3163 81.0502 63.7353 79.0337 64.194 77.0274C64.5684 75.3695 65.004 73.7269 65.419 72.0801C65.5584 71.5289 65.5608 71.0135 65.1904 70.55C64.5684 69.7739 63.2685 69.6035 62.4976 70.2015L62.1567 70.4077L62.2228 69.8199C62.3853 68.5598 62.4179 67.3041 62.0945 66.0628C61.6915 64.5156 60.6593 63.6253 59.1588 63.6747C58.4595 63.6977 57.7251 63.8255 57.0776 64.0982C54.3544 65.2398 52.2605 67.2615 50.478 69.6938C50.3128 69.9196 50.108 70.1089 49.8751 70.251C47.5709 71.6175 45.2596 72.967 42.949 74.3216L40.3772 75.8287C39.6874 75.125 39.0606 74.3949 38.3494 73.7755C36.1774 71.8807 33.9704 70.0329 31.7833 68.1594C29.8447 66.499 27.9666 64.7695 26.5298 62.5706C25.4609 60.9349 24.772 59.1449 24.7058 57.1224C24.6222 54.5452 25.3056 52.1904 26.5322 49.9984C28.1012 47.1937 30.2413 44.9429 32.5941 42.9042C35.0831 40.7487 37.7751 38.9187 40.5652 37.248C44.4687 34.9111 48.4837 32.8426 52.7886 31.4769C57.2026 30.0763 61.6812 29.2746 66.3007 29.8335C68.1166 30.0533 69.88 30.498 71.4993 31.448C72.7394 32.1747 73.7565 33.1263 74.2296 34.6138C74.6963 36.0775 74.682 37.5607 74.3586 39.0474C73.7015 42.0582 72.1603 44.5399 70.2209 46.7575C67.0398 50.3928 63.1594 52.8677 58.7908 54.5026C56.2789 55.4439 53.6655 56.0402 51.0133 56.2772C48.8397 56.4723 46.7115 56.2662 44.6534 55.4577C43.2907 54.9218 42.1039 54.1022 41.1498 52.9129C40.9793 52.6999 40.7611 52.469 40.4433 52.6684C40.1319 52.8643 40.0769 53.1813 40.1813 53.5024C40.3557 54.0358 40.5166 54.5912 40.7882 55.0683C41.4707 56.2653 42.4663 57.1335 43.5623 57.8781C45.6673 59.3102 48.0201 59.7915 50.4597 59.9032C54.1617 60.0744 57.7737 59.4831 61.3347 58.4208C66.4186 56.9043 70.839 54.2257 74.3841 50.0001C77.3358 46.4815 79.444 42.5106 79.8956 37.7158C80.1163 35.3755 79.8813 33.0829 78.8571 30.9479C77.746 28.6348 75.9794 26.9147 73.8672 25.7297C70.7912 24.0045 67.4715 23 64.0451 23H60.6123C56.4627 23 52.4509 24.272 48.5514 25.7893C45.5996 26.9386 42.7053 28.2949 39.8953 29.796C33.776 33.0667 28.0773 37.0104 23.3965 42.433C21.0644 45.1346 19.0899 48.1155 17.9542 51.6256C17.6114 52.6735 17.3161 53.7386 17.0693 54.817M39.2422 85.4983C38.977 89.2972 37.3673 92.377 34.7366 94.8715C33.2568 96.2738 31.5595 97.2723 29.5826 97.6233C28.8658 97.7503 28.1323 97.7809 27.4369 97.4632C26.4453 97.0099 26.2231 96.0685 26.204 95.0658C26.1745 93.4675 26.6978 92.0226 27.4154 90.6475C28.3521 88.855 29.7252 87.4885 31.1915 86.2123C33.5013 84.2008 36.007 82.4986 38.5732 80.8918L38.7667 80.8066C39.1634 82.3742 39.3521 83.9222 39.2422 85.4983ZM59.2798 68.9884C59.0926 70.2016 58.8585 71.4156 58.5272 72.5913C57.3818 76.661 55.9107 80.6047 54.3202 84.4956C54.0263 85.2155 53.5986 85.8724 53.2266 86.5548C53.1634 86.6597 53.0876 86.7553 53.0012 86.8393C52.5409 87.3258 52.1044 87.3002 51.8718 86.6638C51.601 85.9243 51.4346 85.1329 51.2912 84.3499C51.1948 83.8243 51.2179 83.2722 51.1877 82.7338C51.2187 78.9051 52.3107 75.4257 54.1633 72.1866C54.9271 70.8507 55.7586 69.5779 57.029 68.7328C57.4242 68.47 57.8518 68.2675 58.2994 68.1313C58.9764 67.9277 59.3921 68.2625 59.2798 68.9884ZM72.9504 87.6189L77.8639 81.4822C78.0685 83.7612 74.447 88.3106 72.9504 87.6189ZM88.6433 83.4894C88.296 83.7024 87.9177 83.8558 87.5617 84.0526C87.2359 84.2332 87.1284 84.0509 87.1188 83.751C87.114 83.5434 87.139 83.3362 87.1929 83.1367C87.8564 80.6337 89.0774 78.497 90.8941 76.759L91.0215 76.6892C91.8857 79.2748 90.8869 82.1144 88.6433 83.4894Z" fill="#F5F5F5"/>
<defs>
<filter id="filter0_d_122_132" x="0" y="0" width="134" height="134" filterUnits="userSpaceOnUse" color-interpolation-filters="sRGB">
<feFlood flood-opacity="0" result="BackgroundImageFix"/>
<feColorMatrix in="SourceAlpha" type="matrix" values="0 0 0 0 0 0 0 0 0 0 0 0 0 0 0 0 0 0 127 0" result="hardAlpha"/>
<feOffset dy="4"/>
<feGaussianBlur stdDeviation="2"/>
<feComposite in2="hardAlpha" operator="out"/>
<feColorMatrix type="matrix" values="0 0 0 0 0 0 0 0 0 0 0 0 0 0 0 0 0 0 0.25 0"/>
<feBlend mode="normal" in2="BackgroundImageFix" result="effect1_dropShadow_122_132"/>
<feBlend mode="normal" in="SourceGraphic" in2="effect1_dropShadow_122_132" result="shape"/>
</filter>
<filter id="filter1_d_122_132" x="3" y="3" width="128" height="128" filterUnits="userSpaceOnUse" color-interpolation-filters="sRGB">
<feFlood flood-opacity="0" result="BackgroundImageFix"/>
<feColorMatrix in="SourceAlpha" type="matrix" values="0 0 0 0 0 0 0 0 0 0 0 0 0 0 0 0 0 0 127 0" result="hardAlpha"/>
<feOffset dy="4"/>
<feGaussianBlur stdDeviation="2"/>
<feComposite in2="hardAlpha" operator="out"/>
<feColorMatrix type="matrix" values="0 0 0 0 0 0 0 0 0 0 0 0 0 0 0 0 0 0 0.25 0"/>
<feBlend mode="normal" in2="BackgroundImageFix" result="effect1_dropShadow_122_132"/>
<feBlend mode="normal" in="SourceGraphic" in2="effect1_dropShadow_122_132" result="shape"/>
</filter>
</defs>
</svg>
