<svg width="134" height="134" viewBox="0 0 134 134" fill="none" xmlns="http://www.w3.org/2000/svg">
<g filter="url(#filter0_d_122_122)">
<path d="M4 25C4 11.1929 15.1929 0 29 0H105C118.807 0 130 11.1929 130 25V101C130 114.807 118.807 126 105 126H29C15.1929 126 4 114.807 4 101V25Z" fill="white"/>
</g>
<g filter="url(#filter1_d_122_122)">
<path d="M7 28C7 14.1929 18.1929 3 32 3H102C115.807 3 127 14.1929 127 28V98C127 111.807 115.807 123 102 123H32C18.1929 123 7 111.807 7 98V28Z" fill="black"/>
</g>
<path d="M26.028 80.199H23.727V84.676C23.727 85.875 24.5 85.847 26.027 85.773V87.574C22.927 87.949 21.704 87.097 21.704 84.676V80.199H20V78.273H21.704V75.773L23.704 75.176V78.273H26V80.199H26.028ZM34.828 78.273H36.828V87.574H34.828V86.222C34.125 87.199 33.028 87.801 31.578 87.801C29.051 87.801 26.954 85.648 26.954 82.898C26.954 80.125 29.051 78 31.579 78C33.028 78 34.125 78.597 34.829 79.574L34.828 78.273ZM31.875 85.898C33.551 85.898 34.829 84.648 34.829 82.926C34.829 81.199 33.551 79.949 31.875 79.949C30.204 79.949 28.926 81.199 28.926 82.926C28.954 84.648 30.203 85.898 31.875 85.898ZM40.176 76.875C39.477 76.875 38.903 76.273 38.903 75.597C38.903 74.898 39.477 74.324 40.176 74.324C40.876 74.324 41.454 74.898 41.454 75.597C41.477 76.273 40.875 76.875 40.176 76.875ZM39.176 87.574V78.274H41.176V87.574H39.176ZM43.5 87.574V74H45.5V87.574H43.5ZM58.579 78.274H60.704L57.778 87.574H55.801L53.875 81.301L51.926 87.574H49.954L47.028 78.274H49.152L50.952 84.699L52.902 78.273H54.828L56.749 84.699L58.579 78.274ZM63.176 76.874C62.477 76.874 61.903 76.274 61.903 75.597C61.903 74.898 62.477 74.324 63.176 74.324C63.876 74.324 64.454 74.898 64.454 75.597C64.477 76.273 63.903 76.874 63.176 76.874ZM62.176 87.574V78.274H64.176V87.574H62.176ZM71.403 78.024C73.477 78.024 74.977 79.449 74.977 81.847V87.574H72.977V82.074C72.977 80.648 72.153 79.926 70.903 79.926C69.579 79.926 68.528 80.699 68.528 82.597V87.597H66.528V78.301H68.528V79.5C69.153 78.5 70.153 78.024 71.403 78.024ZM84.528 74.551H86.528V87.574H84.528V86.222C83.828 87.199 82.727 87.801 81.278 87.801C78.75 87.801 76.653 85.648 76.653 82.898C76.653 80.125 78.75 78 81.278 78C82.727 78 83.828 78.597 84.528 79.574V74.551ZM81.578 85.898C83.25 85.898 84.528 84.648 84.528 82.926C84.528 81.199 83.25 79.949 81.578 79.949C79.903 79.949 78.625 81.199 78.625 82.926C78.625 84.648 79.902 85.898 81.578 85.898ZM93.25 87.824C90.454 87.824 88.329 85.676 88.329 82.926C88.329 80.148 90.426 78.023 93.25 78.023C95.079 78.023 96.653 78.973 97.403 80.426L95.676 81.426C95.278 80.551 94.352 80 93.227 80C91.579 80 90.352 81.25 90.352 82.926C90.352 84.597 91.602 85.847 93.227 85.847C94.352 85.847 95.25 85.273 95.704 84.426L97.426 85.398C96.676 86.875 95.079 87.824 93.25 87.824ZM100.778 80.824C100.778 82.524 105.778 81.5 105.778 84.949C105.778 86.801 104.153 87.824 102.153 87.824C100.301 87.824 98.953 86.972 98.352 85.648L100.079 84.648C100.375 85.5 101.125 86 102.153 86C103.051 86 103.727 85.699 103.727 84.949C103.727 83.301 98.727 84.222 98.727 80.899C98.727 79.149 100.227 78.051 102.125 78.051C103.653 78.051 104.926 78.75 105.579 79.972L103.875 80.926C103.551 80.199 102.903 79.875 102.125 79.875C101.403 79.847 100.778 80.175 100.778 80.824ZM109.352 80.824C109.352 82.524 114.352 81.5 114.352 84.949C114.352 86.801 112.727 87.824 110.727 87.824C108.875 87.824 107.527 86.972 106.927 85.648L108.653 84.648C108.953 85.5 109.703 86 110.727 86C111.625 86 112.301 85.699 112.301 84.949C112.301 83.301 107.301 84.222 107.301 80.899C107.301 79.149 108.801 78.051 110.704 78.051C112.227 78.051 113.5 78.75 114.153 79.972L112.453 80.926C112.125 80.199 111.477 79.875 110.703 79.875C109.977 79.847 109.352 80.175 109.352 80.824Z" fill="white"/>
<path d="M57.4854 51.958C62.2207 51.958 64.3758 54.4483 66.2119 56.6211C67.3627 57.9683 68.4002 59.1489 69.8369 59.5576C72.3511 60.2998 74.5793 59.2316 76.4814 56.333C75.2243 62.0927 72.0653 64.9999 67.0039 65C62.2943 65 60.1387 62.5015 58.2695 60.3369C57.126 58.9899 56.0812 57.8013 54.6445 57.3926C52.1305 56.6587 49.9021 57.7181 48 60.623C49.2572 54.8569 52.4167 51.958 57.4854 51.958ZM67.0039 39C71.7061 39.0001 73.8613 41.4985 75.7305 43.6631C76.8812 45.0101 77.9188 46.1987 79.3555 46.6074C81.8696 47.3413 84.0979 46.2736 86 43.375C84.7429 49.1348 81.5831 52.042 76.5215 52.042C71.8122 52.0418 69.6572 49.5435 67.7881 47.3789C66.6445 46.0317 65.5998 44.8433 64.1631 44.4346C61.6488 43.7005 59.4208 44.7683 57.5186 47.667C58.7757 41.9072 61.9351 39 67.0039 39Z" fill="white"/>
<path d="M57.4854 51.958C62.2207 51.958 64.3758 54.4483 66.2119 56.6211C67.3627 57.9683 68.4002 59.1489 69.8369 59.5576C72.3511 60.2998 74.5793 59.2316 76.4814 56.333C75.2243 62.0927 72.0653 64.9999 67.0039 65C62.2943 65 60.1387 62.5015 58.2695 60.3369C57.126 58.9899 56.0812 57.8013 54.6445 57.3926C52.1305 56.6587 49.9021 57.7181 48 60.623C49.2572 54.8569 52.4167 51.958 57.4854 51.958ZM67.0039 39C71.7061 39.0001 73.8613 41.4985 75.7305 43.6631C76.8812 45.0101 77.9188 46.1987 79.3555 46.6074C81.8696 47.3413 84.0979 46.2736 86 43.375C84.7429 49.1348 81.5831 52.042 76.5215 52.042C71.8122 52.0418 69.6572 49.5435 67.7881 47.3789C66.6445 46.0317 65.5998 44.8433 64.1631 44.4346C61.6488 43.7005 59.4208 44.7683 57.5186 47.667C58.7757 41.9072 61.9351 39 67.0039 39Z" stroke="black"/>
<defs>
<filter id="filter0_d_122_122" x="0" y="0" width="134" height="134" filterUnits="userSpaceOnUse" color-interpolation-filters="sRGB">
<feFlood flood-opacity="0" result="BackgroundImageFix"/>
<feColorMatrix in="SourceAlpha" type="matrix" values="0 0 0 0 0 0 0 0 0 0 0 0 0 0 0 0 0 0 127 0" result="hardAlpha"/>
<feOffset dy="4"/>
<feGaussianBlur stdDeviation="2"/>
<feComposite in2="hardAlpha" operator="out"/>
<feColorMatrix type="matrix" values="0 0 0 0 0 0 0 0 0 0 0 0 0 0 0 0 0 0 0.25 0"/>
<feBlend mode="normal" in2="BackgroundImageFix" result="effect1_dropShadow_122_122"/>
<feBlend mode="normal" in="SourceGraphic" in2="effect1_dropShadow_122_122" result="shape"/>
</filter>
<filter id="filter1_d_122_122" x="3" y="3" width="128" height="128" filterUnits="userSpaceOnUse" color-interpolation-filters="sRGB">
<feFlood flood-opacity="0" result="BackgroundImageFix"/>
<feColorMatrix in="SourceAlpha" type="matrix" values="0 0 0 0 0 0 0 0 0 0 0 0 0 0 0 0 0 0 127 0" result="hardAlpha"/>
<feOffset dy="4"/>
<feGaussianBlur stdDeviation="2"/>
<feComposite in2="hardAlpha" operator="out"/>
<feColorMatrix type="matrix" values="0 0 0 0 0 0 0 0 0 0 0 0 0 0 0 0 0 0 0.25 0"/>
<feBlend mode="normal" in2="BackgroundImageFix" result="effect1_dropShadow_122_122"/>
<feBlend mode="normal" in="SourceGraphic" in2="effect1_dropShadow_122_122" result="shape"/>
</filter>
</defs>
</svg>
