<svg width="138" height="138" viewBox="0 0 138 138" fill="none" xmlns="http://www.w3.org/2000/svg">
<g filter="url(#filter0_d_91_122)">
<path d="M6 2H132V128H6V2Z" fill="white"/>
<path d="M132 1L132.103 1.00488C132.607 1.05621 133 1.48232 133 2V128C133 128.552 132.552 129 132 129H6C5.44772 129 5 128.552 5 128V2C5 1.44772 5.44772 1 6 1H132Z" stroke="white" stroke-width="2" stroke-linejoin="round"/>
</g>
<g filter="url(#filter1_d_91_122)">
<path d="M9 5H129V125H9V5Z" fill="black"/>
<path d="M129 4L129.103 4.00488C129.607 4.05622 130 4.48232 130 5V125C130 125.552 129.552 126 129 126H9C8.44772 126 8 125.552 8 125V5C8 4.44772 8.44772 4 9 4H129Z" stroke="black" stroke-width="2" stroke-linejoin="round"/>
</g>
<path d="M28.028 82.199H25.727V86.676C25.727 87.875 26.5 87.847 28.027 87.773V89.574C24.927 89.949 23.704 89.097 23.704 86.676V82.199H22V80.273H23.704V77.773L25.704 77.176V80.273H28V82.199H28.028ZM36.828 80.273H38.828V89.574H36.828V88.222C36.125 89.199 35.028 89.801 33.578 89.801C31.051 89.801 28.954 87.648 28.954 84.898C28.954 82.125 31.051 80 33.579 80C35.028 80 36.125 80.597 36.829 81.574L36.828 80.273ZM33.875 87.898C35.551 87.898 36.829 86.648 36.829 84.926C36.829 83.199 35.551 81.949 33.875 81.949C32.204 81.949 30.926 83.199 30.926 84.926C30.954 86.648 32.203 87.898 33.875 87.898ZM42.176 78.875C41.477 78.875 40.903 78.273 40.903 77.597C40.903 76.898 41.477 76.324 42.176 76.324C42.876 76.324 43.454 76.898 43.454 77.597C43.477 78.273 42.875 78.875 42.176 78.875ZM41.176 89.574V80.274H43.176V89.574H41.176ZM45.5 89.574V76H47.5V89.574H45.5ZM60.579 80.274H62.704L59.778 89.574H57.801L55.875 83.301L53.926 89.574H51.954L49.028 80.274H51.152L52.952 86.699L54.902 80.273H56.828L58.749 86.699L60.579 80.274ZM65.176 78.874C64.477 78.874 63.903 78.274 63.903 77.597C63.903 76.898 64.477 76.324 65.176 76.324C65.876 76.324 66.454 76.898 66.454 77.597C66.477 78.273 65.903 78.874 65.176 78.874ZM64.176 89.574V80.274H66.176V89.574H64.176ZM73.403 80.024C75.477 80.024 76.977 81.449 76.977 83.847V89.574H74.977V84.074C74.977 82.648 74.153 81.926 72.903 81.926C71.579 81.926 70.528 82.699 70.528 84.597V89.597H68.528V80.301H70.528V81.5C71.153 80.5 72.153 80.024 73.403 80.024ZM86.528 76.551H88.528V89.574H86.528V88.222C85.828 89.199 84.727 89.801 83.278 89.801C80.75 89.801 78.653 87.648 78.653 84.898C78.653 82.125 80.75 80 83.278 80C84.727 80 85.828 80.597 86.528 81.574V76.551ZM83.578 87.898C85.25 87.898 86.528 86.648 86.528 84.926C86.528 83.199 85.25 81.949 83.578 81.949C81.903 81.949 80.625 83.199 80.625 84.926C80.625 86.648 81.902 87.898 83.578 87.898ZM95.25 89.824C92.454 89.824 90.329 87.676 90.329 84.926C90.329 82.148 92.426 80.023 95.25 80.023C97.079 80.023 98.653 80.973 99.403 82.426L97.676 83.426C97.278 82.551 96.352 82 95.227 82C93.579 82 92.352 83.25 92.352 84.926C92.352 86.597 93.602 87.847 95.227 87.847C96.352 87.847 97.25 87.273 97.704 86.426L99.426 87.398C98.676 88.875 97.079 89.824 95.25 89.824ZM102.778 82.824C102.778 84.524 107.778 83.5 107.778 86.949C107.778 88.801 106.153 89.824 104.153 89.824C102.301 89.824 100.953 88.972 100.352 87.648L102.079 86.648C102.375 87.5 103.125 88 104.153 88C105.051 88 105.727 87.699 105.727 86.949C105.727 85.301 100.727 86.222 100.727 82.899C100.727 81.149 102.227 80.051 104.125 80.051C105.653 80.051 106.926 80.75 107.579 81.972L105.875 82.926C105.551 82.199 104.903 81.875 104.125 81.875C103.403 81.847 102.778 82.175 102.778 82.824ZM111.352 82.824C111.352 84.524 116.352 83.5 116.352 86.949C116.352 88.801 114.727 89.824 112.727 89.824C110.875 89.824 109.527 88.972 108.927 87.648L110.653 86.648C110.953 87.5 111.703 88 112.727 88C113.625 88 114.301 87.699 114.301 86.949C114.301 85.301 109.301 86.222 109.301 82.899C109.301 81.149 110.801 80.051 112.704 80.051C114.227 80.051 115.5 80.75 116.153 81.972L114.453 82.926C114.125 82.199 113.477 81.875 112.703 81.875C111.977 81.847 111.352 82.175 111.352 82.824Z" fill="white"/>
<path d="M69.0036 41C63.9348 41 60.7755 43.9069 59.5183 49.6667C61.4205 46.768 63.6489 45.7004 66.1632 46.4344C67.5999 46.8432 68.6444 48.0318 69.788 49.3789C71.6572 51.5435 73.8123 54.0417 78.5219 54.0417C83.5835 54.0417 86.7429 51.1348 88 45.375C86.0978 48.2737 83.8694 49.3413 81.3551 48.6072C79.9184 48.1985 78.8811 47.0099 77.7303 45.6628C75.8611 43.4981 73.706 41 69.0036 41ZM59.4853 53.9583C54.4165 53.9583 51.2571 56.857 50 62.6233C51.9022 59.7181 54.1306 58.6587 56.6449 59.3928C58.0816 59.8015 59.1261 60.9901 60.2697 62.3372C62.1389 64.5019 64.294 67 69.0036 67C74.0652 67 77.2245 64.0931 78.4817 58.3333C76.5795 61.232 74.3511 62.2996 71.8368 61.5574C70.4001 61.1487 69.3628 59.9682 68.212 58.6211C66.3758 56.4483 64.2207 53.9583 59.4853 53.9583Z" fill="white"/>
<defs>
<filter id="filter0_d_91_122" x="0" y="0" width="138" height="138" filterUnits="userSpaceOnUse" color-interpolation-filters="sRGB">
<feFlood flood-opacity="0" result="BackgroundImageFix"/>
<feColorMatrix in="SourceAlpha" type="matrix" values="0 0 0 0 0 0 0 0 0 0 0 0 0 0 0 0 0 0 127 0" result="hardAlpha"/>
<feOffset dy="4"/>
<feGaussianBlur stdDeviation="2"/>
<feComposite in2="hardAlpha" operator="out"/>
<feColorMatrix type="matrix" values="0 0 0 0 0 0 0 0 0 0 0 0 0 0 0 0 0 0 0.25 0"/>
<feBlend mode="normal" in2="BackgroundImageFix" result="effect1_dropShadow_91_122"/>
<feBlend mode="normal" in="SourceGraphic" in2="effect1_dropShadow_91_122" result="shape"/>
</filter>
<filter id="filter1_d_91_122" x="3" y="3" width="132" height="132" filterUnits="userSpaceOnUse" color-interpolation-filters="sRGB">
<feFlood flood-opacity="0" result="BackgroundImageFix"/>
<feColorMatrix in="SourceAlpha" type="matrix" values="0 0 0 0 0 0 0 0 0 0 0 0 0 0 0 0 0 0 127 0" result="hardAlpha"/>
<feOffset dy="4"/>
<feGaussianBlur stdDeviation="2"/>
<feComposite in2="hardAlpha" operator="out"/>
<feColorMatrix type="matrix" values="0 0 0 0 0 0 0 0 0 0 0 0 0 0 0 0 0 0 0.25 0"/>
<feBlend mode="normal" in2="BackgroundImageFix" result="effect1_dropShadow_91_122"/>
<feBlend mode="normal" in="SourceGraphic" in2="effect1_dropShadow_91_122" result="shape"/>
</filter>
</defs>
</svg>
