<svg width="134" height="134" viewBox="0 0 134 134" fill="none" xmlns="http://www.w3.org/2000/svg">
<g filter="url(#filter0_d_122_97)">
<path d="M4 25C4 11.1929 15.1929 0 29 0H105C118.807 0 130 11.1929 130 25V101C130 114.807 118.807 126 105 126H29C15.1929 126 4 114.807 4 101V25Z" fill="white"/>
</g>
<g filter="url(#filter1_d_122_97)">
<path d="M7 28C7 14.1929 18.1929 3 32 3H102C115.807 3 127 14.1929 127 28V98C127 111.807 115.807 123 102 123H32C18.1929 123 7 111.807 7 98V28Z" fill="black"/>
</g>
<path d="M112.736 107.736H33V48.8H112.736V107.736Z" fill="white"/>
<path d="M112.736 107.736H33V48.8H112.736V107.736Z" stroke="black"/>
<path d="M17 63V113H117V13H17V63ZM97.584 59C99.9791 59.5558 102.156 60.8085 103.84 62.6C104.767 63.5652 105.573 64.6398 106.24 65.8C106.24 65.928 101.92 68.848 99.288 70.48C99.192 70.544 98.808 70.128 98.384 69.496C97.9035 68.6669 97.2208 67.9731 96.3997 67.4793C95.5785 66.9855 94.6456 66.7077 93.688 66.672C90.656 66.464 88.704 68.056 88.72 70.672C88.6949 71.3233 88.8441 71.9695 89.152 72.544C89.816 73.928 91.056 74.752 94.944 76.432C102.104 79.512 105.168 81.544 107.072 84.432C109.2 87.632 109.672 92.8 108.232 96.624C106.632 100.784 102.712 103.608 97.168 104.544C94.6359 104.834 92.0775 104.807 89.552 104.464C85.6813 103.826 82.1159 101.968 79.376 99.16C78.456 98.144 76.664 95.496 76.776 95.304C77.068 95.0872 77.3755 94.892 77.696 94.72L81.4 92.672L84.272 91.008L84.872 91.896C85.8846 93.3445 87.1732 94.5788 88.664 95.528C91.864 97.208 96.232 96.976 98.392 95.032C99.1172 94.3196 99.5697 93.3755 99.6705 92.364C99.7714 91.3524 99.5143 90.3375 98.944 89.496C98.144 88.384 96.544 87.448 92.072 85.496C86.912 83.272 84.688 81.896 82.656 79.704C81.3875 78.2575 80.4509 76.5509 79.912 74.704C79.51 72.594 79.4506 70.4329 79.736 68.304C80.8 63.32 84.536 59.84 89.992 58.808C92.5187 58.4954 95.0782 58.5655 97.584 59.016V59ZM74.112 63.192V67.288H61.128V104.272H51.92V67.28H38.904V63.28C38.8635 61.9006 38.8955 60.52 39 59.144C39.064 59.072 47 59.072 56.6 59.072H74.064L74.112 63.192Z" fill="black"/>
<defs>
<filter id="filter0_d_122_97" x="0" y="0" width="134" height="134" filterUnits="userSpaceOnUse" color-interpolation-filters="sRGB">
<feFlood flood-opacity="0" result="BackgroundImageFix"/>
<feColorMatrix in="SourceAlpha" type="matrix" values="0 0 0 0 0 0 0 0 0 0 0 0 0 0 0 0 0 0 127 0" result="hardAlpha"/>
<feOffset dy="4"/>
<feGaussianBlur stdDeviation="2"/>
<feComposite in2="hardAlpha" operator="out"/>
<feColorMatrix type="matrix" values="0 0 0 0 0 0 0 0 0 0 0 0 0 0 0 0 0 0 0.25 0"/>
<feBlend mode="normal" in2="BackgroundImageFix" result="effect1_dropShadow_122_97"/>
<feBlend mode="normal" in="SourceGraphic" in2="effect1_dropShadow_122_97" result="shape"/>
</filter>
<filter id="filter1_d_122_97" x="3" y="3" width="128" height="128" filterUnits="userSpaceOnUse" color-interpolation-filters="sRGB">
<feFlood flood-opacity="0" result="BackgroundImageFix"/>
<feColorMatrix in="SourceAlpha" type="matrix" values="0 0 0 0 0 0 0 0 0 0 0 0 0 0 0 0 0 0 127 0" result="hardAlpha"/>
<feOffset dy="4"/>
<feGaussianBlur stdDeviation="2"/>
<feComposite in2="hardAlpha" operator="out"/>
<feColorMatrix type="matrix" values="0 0 0 0 0 0 0 0 0 0 0 0 0 0 0 0 0 0 0.25 0"/>
<feBlend mode="normal" in2="BackgroundImageFix" result="effect1_dropShadow_122_97"/>
<feBlend mode="normal" in="SourceGraphic" in2="effect1_dropShadow_122_97" result="shape"/>
</filter>
</defs>
</svg>
