<svg width="138" height="138" viewBox="0 0 138 138" fill="none" xmlns="http://www.w3.org/2000/svg">
<g filter="url(#filter0_d_92_158)">
<path d="M6 2H132V128H6V2Z" fill="white"/>
<path d="M132 1L132.103 1.00488C132.607 1.05621 133 1.48232 133 2V128C133 128.552 132.552 129 132 129H6C5.44772 129 5 128.552 5 128V2C5 1.44772 5.44772 1 6 1H132Z" stroke="white" stroke-width="2" stroke-linejoin="round"/>
</g>
<g filter="url(#filter1_d_92_158)">
<path d="M9 5H129V125H9V5Z" fill="black"/>
<path d="M129 4L129.103 4.00488C129.607 4.05622 130 4.48232 130 5V125C130 125.552 129.552 126 129 126H9C8.44772 126 8 125.552 8 125V5C8 4.44772 8.44772 4 9 4H129Z" stroke="black" stroke-width="2" stroke-linejoin="round"/>
</g>
<path d="M32 53.96H127.683V124.683H32V53.96Z" fill="white"/>
<path d="M8 65V125H128V5H8V65ZM104.701 60.2C107.575 60.867 110.187 62.3702 112.208 64.52C113.321 65.6782 114.288 66.9677 115.088 68.36C115.088 68.5136 109.904 72.0176 106.746 73.976C106.63 74.0528 106.17 73.5536 105.661 72.7952C105.084 71.8003 104.265 70.9677 103.28 70.3751C102.294 69.7825 101.175 69.4493 100.026 69.4064C96.3872 69.1568 94.0448 71.0672 94.064 74.2064C94.0339 74.988 94.2129 75.7634 94.5824 76.4528C95.3792 78.1136 96.8672 79.1024 101.533 81.1184C110.125 84.8144 113.802 87.2528 116.086 90.7184C118.64 94.5584 119.206 100.76 117.478 105.349C115.558 110.341 110.854 113.73 104.202 114.853C101.163 115.201 98.093 115.169 95.0624 114.757C90.4176 113.991 86.139 111.761 82.8512 108.392C81.7472 107.173 79.5968 103.995 79.7312 103.765C80.0817 103.505 80.4506 103.27 80.8352 103.064L85.28 100.606L88.7264 98.6096L89.4464 99.6752C90.6615 101.413 92.2079 102.894 93.9968 104.034C97.8368 106.05 103.078 105.771 105.67 103.438C106.541 102.584 107.084 101.451 107.205 100.237C107.326 99.0229 107.017 97.805 106.333 96.7952C105.373 95.4608 103.453 94.3376 98.0864 91.9952C91.8944 89.3264 89.2256 87.6752 86.7872 85.0448C85.265 83.309 84.1411 81.2611 83.4944 79.0448C83.012 76.5127 82.9407 73.9195 83.2832 71.3648C84.56 65.384 89.0432 61.208 95.5904 59.9696C98.6225 59.5944 101.694 59.6786 104.701 60.2192V60.2ZM76.5344 65.2304V70.1456H60.9536V114.526H49.904V70.136H34.2848V65.336C34.2361 63.6807 34.2746 62.024 34.4 60.3728C34.4768 60.2864 44 60.2864 55.52 60.2864H76.4768L76.5344 65.2304Z" fill="#020202"/>
<defs>
<filter id="filter0_d_92_158" x="0" y="0" width="138" height="138" filterUnits="userSpaceOnUse" color-interpolation-filters="sRGB">
<feFlood flood-opacity="0" result="BackgroundImageFix"/>
<feColorMatrix in="SourceAlpha" type="matrix" values="0 0 0 0 0 0 0 0 0 0 0 0 0 0 0 0 0 0 127 0" result="hardAlpha"/>
<feOffset dy="4"/>
<feGaussianBlur stdDeviation="2"/>
<feComposite in2="hardAlpha" operator="out"/>
<feColorMatrix type="matrix" values="0 0 0 0 0 0 0 0 0 0 0 0 0 0 0 0 0 0 0.25 0"/>
<feBlend mode="normal" in2="BackgroundImageFix" result="effect1_dropShadow_92_158"/>
<feBlend mode="normal" in="SourceGraphic" in2="effect1_dropShadow_92_158" result="shape"/>
</filter>
<filter id="filter1_d_92_158" x="3" y="3" width="132" height="132" filterUnits="userSpaceOnUse" color-interpolation-filters="sRGB">
<feFlood flood-opacity="0" result="BackgroundImageFix"/>
<feColorMatrix in="SourceAlpha" type="matrix" values="0 0 0 0 0 0 0 0 0 0 0 0 0 0 0 0 0 0 127 0" result="hardAlpha"/>
<feOffset dy="4"/>
<feGaussianBlur stdDeviation="2"/>
<feComposite in2="hardAlpha" operator="out"/>
<feColorMatrix type="matrix" values="0 0 0 0 0 0 0 0 0 0 0 0 0 0 0 0 0 0 0.25 0"/>
<feBlend mode="normal" in2="BackgroundImageFix" result="effect1_dropShadow_92_158"/>
<feBlend mode="normal" in="SourceGraphic" in2="effect1_dropShadow_92_158" result="shape"/>
</filter>
</defs>
</svg>
