<svg width="142" height="138" viewBox="0 0 142 138" fill="none" xmlns="http://www.w3.org/2000/svg">
<g filter="url(#filter0_d_92_177)">
<path d="M6 2H132V128H6V2Z" fill="white"/>
<path d="M132 1L132.103 1.00488C132.607 1.05621 133 1.48232 133 2V128C133 128.552 132.552 129 132 129H6C5.44772 129 5 128.552 5 128V2C5 1.44772 5.44772 1 6 1H132Z" stroke="white" stroke-width="2" stroke-linejoin="round"/>
</g>
<g filter="url(#filter1_d_92_177)">
<path d="M9 5H129V125H9V5Z" fill="black"/>
<path d="M129 4L129.103 4.00488C129.607 4.05622 130 4.48232 130 5V125C130 125.552 129.552 126 129 126H9C8.44772 126 8 125.552 8 125V5C8 4.44772 8.44772 4 9 4H129Z" stroke="black" stroke-width="2" stroke-linejoin="round"/>
</g>
<path d="M10.1562 50.1875C11.0104 50.2917 11.875 50.3646 12.75 50.4062C13.6458 50.4479 14.4583 50.4688 15.1875 50.4688C16.0417 50.4688 16.875 50.4479 17.6875 50.4062C18.5208 50.3854 19.3958 50.3438 20.3125 50.2812C21.1042 50.2396 22 50.1875 23 50.125C24 50.0625 25.0417 50 26.125 49.9375L26.3125 52.6562C26.3125 52.8438 26.3229 53.0833 26.3438 53.375C26.3438 53.625 26.3438 53.9375 26.3438 54.3125C26.3646 54.6875 26.3854 55.125 26.4062 55.625C25.6562 56.2708 24.9792 56.8854 24.375 57.4688C23.7917 58.0312 23.2917 58.5312 22.875 58.9688C22.375 59.4896 21.9375 59.9688 21.5625 60.4062C21.0833 60.9688 20.5729 61.6562 20.0312 62.4688C19.4896 63.2604 18.9792 64.0417 18.5 64.8125C18.0417 65.5625 17.6667 66.2396 17.375 66.8438C17.0833 67.4271 16.9583 67.7917 17 67.9375C17.0208 68.0417 17.2292 68.1042 17.625 68.125C18.0208 68.125 18.5 68.1042 19.0625 68.0625C19.6458 68.0208 20.2812 67.9583 20.9688 67.875C21.6771 67.7708 22.3333 67.6667 22.9375 67.5625C23.5625 67.4375 24.1146 67.3125 24.5938 67.1875C25.0729 67.0625 25.3854 66.9375 25.5312 66.8125C25.7188 66.6458 25.9271 66.3438 26.1562 65.9062C26.3646 65.5312 26.5938 65.0104 26.8438 64.3438C27.1146 63.6562 27.4167 62.7396 27.75 61.5938C27.7708 62.4479 27.7812 63.1771 27.7812 63.7812C27.8021 64.3854 27.8333 64.8958 27.875 65.3125C27.8958 65.7917 27.9271 66.1875 27.9688 66.5C27.9896 66.8333 28.0312 67.2083 28.0938 67.625C28.1354 67.9792 28.1875 68.4271 28.25 68.9688C28.3125 69.5104 28.3958 70.1146 28.5 70.7812C27 70.5938 25.7396 70.4688 24.7188 70.4062C23.6979 70.3229 22.875 70.2708 22.25 70.25C21.5208 70.2292 20.9375 70.2292 20.5 70.25C20.0417 70.3125 19.4167 70.4062 18.625 70.5312C17.9583 70.6354 17.0729 70.8021 15.9688 71.0312C14.8646 71.2396 13.4792 71.5208 11.8125 71.875C11.7708 71.4792 11.7292 71.1354 11.6875 70.8438C11.6458 70.5521 11.6042 70.2917 11.5625 70.0625C11.5208 69.8333 11.4792 69.6146 11.4375 69.4062C11.3958 69.2188 11.3438 68.9583 11.2812 68.625C11.2396 68.3333 11.1667 67.9792 11.0625 67.5625C10.9792 67.125 10.875 66.5833 10.75 65.9375C12 64.6458 13.0312 63.5625 13.8438 62.6875C14.6771 61.7917 15.3438 61.0625 15.8438 60.5C16.4271 59.8333 16.8854 59.3021 17.2188 58.9062C17.5312 58.5104 17.9375 58.0312 18.4375 57.4688C18.8542 56.9896 19.3958 56.3958 20.0625 55.6875C20.7292 54.9583 21.5312 54.0938 22.4688 53.0938C21.5104 53.0521 20.6146 53.0521 19.7812 53.0938C18.9688 53.1354 18.2604 53.1979 17.6562 53.2812C16.9479 53.3646 16.2917 53.4792 15.6875 53.625C15.125 53.7917 14.5521 54.0625 13.9688 54.4375C13.4688 54.75 12.9271 55.1875 12.3438 55.75C11.7604 56.3125 11.2083 57.0417 10.6875 57.9375C10.6458 57.25 10.6146 56.6667 10.5938 56.1875C10.5729 55.7083 10.5521 55.3125 10.5312 55C10.5104 54.6458 10.4896 54.3542 10.4688 54.125C10.4688 53.8958 10.4479 53.5938 10.4062 53.2188C10.3646 52.9062 10.3229 52.5104 10.2812 52.0312C10.2396 51.5312 10.1979 50.9167 10.1562 50.1875ZM30.0938 57.625C30.6354 57.7292 31.1042 57.8125 31.5 57.875C31.9167 57.9167 32.2708 57.9583 32.5625 58C32.8958 58.0417 33.1875 58.0729 33.4375 58.0938C33.6875 58.1146 33.9792 58.1354 34.3125 58.1562C34.875 58.1771 35.6667 58.1771 36.6875 58.1562C36.0833 58.1146 35.6042 58.2708 35.25 58.625C34.9167 58.9583 34.6667 59.3438 34.5 59.7812C34.2917 60.3021 34.1771 60.9062 34.1562 61.5938C34.1146 62.5104 34.1354 63.3438 34.2188 64.0938C34.3229 64.8229 34.5 65.4479 34.75 65.9688C35.0208 66.4688 35.375 66.8438 35.8125 67.0938C36.25 67.3229 36.8125 67.3854 37.5 67.2812C38.1875 67.1771 38.7083 66.9375 39.0625 66.5625C39.4375 66.1667 39.7083 65.6875 39.875 65.125C40.0417 64.5417 40.1354 63.8854 40.1562 63.1562C40.1979 62.4271 40.2292 61.6667 40.25 60.875C40.25 60.0833 40.2396 59.5208 40.2188 59.1875C40.2188 58.8333 40.2083 58.6042 40.1875 58.5C40.1667 58.3958 40.1354 58.3542 40.0938 58.375C40.0521 58.375 40 58.3229 39.9375 58.2188C39.8958 58.1354 39.8333 58.0521 39.75 57.9688C39.6875 57.8854 39.6042 57.7917 39.5 57.6875C39.3958 57.5625 39.2812 57.4375 39.1562 57.3125C39.6979 57.3333 40.1771 57.3542 40.5938 57.375C41.0312 57.375 41.3958 57.3854 41.6875 57.4062C42.0208 57.4271 42.3125 57.4479 42.5625 57.4688C42.7917 57.4896 43.0938 57.5208 43.4688 57.5625C43.7812 57.6042 44.1875 57.6458 44.6875 57.6875C45.1875 57.7292 45.7812 57.7917 46.4688 57.875C45.9896 57.9792 45.6042 58.1354 45.3125 58.3438C45.0208 58.5521 44.7917 58.7604 44.625 58.9688C44.4375 59.1979 44.3021 59.4479 44.2188 59.7188C44.1562 60.0729 44.1562 60.6146 44.2188 61.3438C44.2604 61.9896 44.3646 62.875 44.5312 64C44.6979 65.125 44.9583 66.6042 45.3125 68.4375L42.8438 69.9062L42.3438 65.75C41.7396 66.7708 41.0938 67.5625 40.4062 68.125C39.7396 68.6667 39.1146 69.0625 38.5312 69.3125C37.8438 69.6042 37.1771 69.7708 36.5312 69.8125C35.6771 69.8125 34.9375 69.7604 34.3125 69.6562C33.7083 69.5312 33.1875 69.375 32.75 69.1875C32.3125 69 31.9583 68.7917 31.6875 68.5625C31.4375 68.3125 31.25 68.0625 31.125 67.8125C30.8333 67.2917 30.6771 66.625 30.6562 65.8125C30.6354 64.9792 30.6667 64.1562 30.75 63.3438C30.8333 62.5104 30.9271 61.75 31.0312 61.0625C31.1354 60.375 31.1667 59.9062 31.125 59.6562C31.0833 59.4688 31.0208 59.2604 30.9375 59.0312C30.8542 58.8438 30.75 58.6354 30.625 58.4062C30.5 58.1562 30.3229 57.8958 30.0938 57.625ZM60.7188 54.1562C60.5312 54.6146 60.3646 55.0312 60.2188 55.4062C60.0938 55.7812 59.9792 56.1146 59.875 56.4062C59.7708 56.7396 59.6771 57.0312 59.5938 57.2812C59.5104 57.5729 59.4167 57.9062 59.3125 58.2812C59.2083 58.6146 59.0729 59.0312 58.9062 59.5312C58.7604 60.0104 58.5833 60.5833 58.375 61.25C58.2083 60.25 57.9062 59.4583 57.4688 58.875C57.0312 58.2708 56.5833 57.8021 56.125 57.4688C55.5833 57.0938 55 56.8229 54.375 56.6562C53.25 56.4688 52.4375 56.4896 51.9375 56.7188C51.4375 56.9479 51.1042 57.2396 50.9375 57.5938C50.8542 57.7396 50.7604 57.9271 50.6562 58.1562C50.5729 58.3646 50.5 58.5833 50.4375 58.8125C50.3958 59.0417 50.3854 59.2708 50.4062 59.5C50.4271 59.7292 50.5208 59.9167 50.6875 60.0625C50.7917 60.1667 51.0625 60.3125 51.5 60.5C51.9375 60.6667 52.4583 60.8646 53.0625 61.0938C53.6875 61.3021 54.3438 61.5312 55.0312 61.7812C55.7396 62.0312 56.4062 62.2812 57.0312 62.5312C57.6562 62.7812 58.1979 63.0312 58.6562 63.2812C59.1146 63.5312 59.4167 63.7604 59.5625 63.9688C59.6875 64.1771 59.8229 64.4583 59.9688 64.8125C60.1354 65.1458 60.25 65.5208 60.3125 65.9375C60.3958 66.3333 60.4167 66.75 60.375 67.1875C60.3542 67.6042 60.2396 68.0208 60.0312 68.4375C59.8229 68.8542 59.4896 69.2396 59.0312 69.5938C58.5938 69.9479 58 70.2396 57.25 70.4688C56.375 70.7396 55.5312 70.8125 54.7188 70.6875C53.9062 70.5625 53.1562 70.375 52.4688 70.125C51.8021 69.875 51.2188 69.6354 50.7188 69.4062C50.2188 69.1562 49.8646 69.0521 49.6562 69.0938C49.4271 69.1354 49.1667 69.25 48.875 69.4375C48.5833 69.625 48.3021 69.8229 48.0312 70.0312C47.7812 70.2188 47.5625 70.3958 47.375 70.5625C47.1875 70.7083 47.0938 70.7604 47.0938 70.7188C47.0938 70.6771 47.125 70.5521 47.1875 70.3438C47.2708 70.1354 47.3542 69.8854 47.4375 69.5938C47.5417 69.2812 47.6354 68.9479 47.7188 68.5938C47.8229 68.2188 47.8958 67.8646 47.9375 67.5312C47.9792 67.2604 48.0312 66.9271 48.0938 66.5312C48.1354 66.1771 48.1875 65.75 48.25 65.25C48.3333 64.7292 48.4271 64.1042 48.5312 63.375C48.6354 63.9167 48.7812 64.3854 48.9688 64.7812C49.1771 65.1771 49.375 65.5208 49.5625 65.8125C49.7917 66.1458 50.0104 66.4271 50.2188 66.6562C50.5312 66.9479 50.8958 67.2188 51.3125 67.4688C51.75 67.7188 52.1875 67.9375 52.625 68.125C53.0625 68.2917 53.4792 68.3958 53.875 68.4375C54.2708 68.4792 54.6042 68.4375 54.875 68.3125C55.1458 68.1875 55.375 67.9583 55.5625 67.625C55.7708 67.2917 55.9167 66.9271 56 66.5312C56.0833 66.1354 56.1146 65.7604 56.0938 65.4062C56.0729 65.0312 55.9792 64.7292 55.8125 64.5C55.6875 64.3542 55.3958 64.1667 54.9375 63.9375C54.5 63.7083 53.9688 63.4583 53.3438 63.1875C52.7396 62.9167 52.0938 62.6354 51.4062 62.3438C50.7396 62.0521 50.1042 61.7604 49.5 61.4688C48.9167 61.1562 48.4271 60.8646 48.0312 60.5938C47.6562 60.3021 47.4479 60.0417 47.4062 59.8125C47.3646 59.4792 47.3333 59.1146 47.3125 58.7188C47.2917 58.3021 47.3125 57.8958 47.375 57.5C47.4583 57.0833 47.6042 56.6875 47.8125 56.3125C48.0417 55.9375 48.375 55.625 48.8125 55.375C49.1042 55.2083 49.4896 55.0833 49.9688 55C50.4479 54.9167 50.9792 54.875 51.5625 54.875C52.1458 54.8542 52.75 54.875 53.375 54.9375C54 54.9792 54.5938 55.0417 55.1562 55.125C55.7396 55.1875 56.2604 55.2708 56.7188 55.375C57.1979 55.4792 57.5625 55.5729 57.8125 55.6562C58.1042 55.7604 58.4167 55.7708 58.75 55.6875C59.0417 55.625 59.3542 55.4896 59.6875 55.2812C60.0208 55.0729 60.3646 54.6979 60.7188 54.1562ZM61.4688 52.3125C62.0938 52.375 62.6146 52.4271 63.0312 52.4688C63.4688 52.5104 63.8229 52.5417 64.0938 52.5625C64.4062 52.5833 64.6562 52.5938 64.8438 52.5938C65.0312 52.6146 65.2812 52.6146 65.5938 52.5938C65.8646 52.5729 66.2188 52.5521 66.6562 52.5312C67.0938 52.4896 67.6458 52.4271 68.3125 52.3438C68.1667 52.5521 68.0521 52.7396 67.9688 52.9062C67.8854 53.0521 67.8125 53.1875 67.75 53.3125L67.5625 53.6875C67.5208 53.8125 67.4792 53.9375 67.4375 54.0625C67.3958 54.1667 67.3542 54.2917 67.3125 54.4375C67.2917 54.5833 67.2708 54.7396 67.25 54.9062H72.0625L71.625 57.4375L67.2188 57.1875C67.1146 58.25 67.0417 59.0729 67 59.6562C66.9583 60.2396 66.9167 60.6667 66.875 60.9375L66.8125 61.5C66.75 62.2917 66.6875 63.1562 66.625 64.0938C66.5625 65.0104 66.5417 65.8646 66.5625 66.6562C66.5833 67.4479 66.6562 68.1146 66.7812 68.6562C66.9062 69.1771 67.125 69.4375 67.4375 69.4375C67.75 69.4375 68.0417 69.3542 68.3125 69.1875C68.5833 69.0208 68.8125 68.8229 69 68.5938C69.2083 68.3646 69.3646 68.1354 69.4688 67.9062C69.5729 67.6562 69.625 67.4688 69.625 67.3438C69.625 67.2188 69.5938 67.0729 69.5312 66.9062C69.4271 66.5938 69.2396 66.1979 68.9688 65.7188C69.5729 65.8646 70.1042 66.0104 70.5625 66.1562C70.7917 66.2396 71 66.3229 71.1875 66.4062C71.3958 66.4896 71.6354 66.5833 71.9062 66.6875C72.1354 66.7917 72.4271 66.9167 72.7812 67.0625C73.1354 67.2083 73.5521 67.3854 74.0312 67.5938C73.5729 67.6771 73.2396 67.8125 73.0312 68C72.9062 68.0833 72.8125 68.1771 72.75 68.2812C72.6042 68.5104 72.4375 68.8229 72.25 69.2188C72.0625 69.5938 71.7812 69.9688 71.4062 70.3438C71.0312 70.7188 70.5208 71.0521 69.875 71.3438C69.25 71.6354 68.4062 71.8021 67.3438 71.8438C66.2396 71.8854 65.3958 71.6979 64.8125 71.2812C64.25 70.8646 63.8333 70.3854 63.5625 69.8438C63.3125 69.2812 63.1667 68.7292 63.125 68.1875C63.0833 67.6458 63.0521 67.2812 63.0312 67.0938C63.0104 66.9062 63.0104 66.4375 63.0312 65.6875C63.0521 64.9375 63.0833 64.1146 63.125 63.2188C63.1667 62.3021 63.2083 61.4271 63.25 60.5938C63.2917 59.7396 63.3125 59.1146 63.3125 58.7188C63.3125 58.5104 63.3229 58.2917 63.3438 58.0625C63.3438 57.875 63.3438 57.6771 63.3438 57.4688C63.3646 57.2396 63.375 57.0208 63.375 56.8125L58.8438 56.7812L58.6562 55L63.2188 55.125C63.1771 54.8958 63.125 54.6875 63.0625 54.5C63.0208 54.2917 62.9792 54.125 62.9375 54C62.875 53.8542 62.8125 53.7292 62.75 53.625C62.6667 53.5208 62.5729 53.4062 62.4688 53.2812C62.3646 53.1771 62.2292 53.0417 62.0625 52.875C61.8958 52.7083 61.6979 52.5208 61.4688 52.3125ZM75.0938 59.3438C75.1979 59.2188 75.2604 58.9896 75.2812 58.6562C75.3229 58.3021 75.4062 57.9062 75.5312 57.4688C75.6771 57.0312 75.9167 56.5729 76.25 56.0938C76.5833 55.6146 77.125 55.1667 77.875 54.75C78.6042 54.3333 79.3125 54.0833 80 54C80.6875 53.9167 81.3438 53.9479 81.9688 54.0938C82.5938 54.2396 83.1771 54.4688 83.7188 54.7812C84.2812 55.0938 84.7917 55.4375 85.25 55.8125C85.5625 56.0625 85.8125 56.4271 86 56.9062C86.1875 57.3646 86.3333 57.8854 86.4375 58.4688C86.5417 59.0521 86.6146 59.6667 86.6562 60.3125C86.7188 60.9375 86.7604 61.5521 86.7812 62.1562C86.8021 62.7396 86.8125 63.2812 86.8125 63.7812C86.8333 64.2604 86.875 64.6562 86.9375 64.9688C87.0208 65.4271 87.1667 65.8229 87.375 66.1562C87.5833 66.4688 87.8125 66.7396 88.0625 66.9688C88.3125 67.1771 88.5625 67.3438 88.8125 67.4688C89.0625 67.5938 89.2812 67.6875 89.4688 67.75C89.5938 67.8125 89.7083 67.8542 89.8125 67.875C90.0208 67.9583 90.1667 67.9583 90.25 67.875C90.125 68.1667 90.0104 68.4167 89.9062 68.625C89.8021 68.8333 89.7188 69.0104 89.6562 69.1562C89.5729 69.3229 89.5 69.4583 89.4375 69.5625C89.375 69.6875 89.3021 69.8021 89.2188 69.9062C89.1562 70.0104 89.0729 70.125 88.9688 70.25C88.8646 70.375 88.7604 70.5104 88.6562 70.6562C88.3854 70.5521 88.125 70.4271 87.875 70.2812C87.6458 70.1354 87.4375 70 87.25 69.875C87.0208 69.7292 86.8125 69.5833 86.625 69.4375C86.4375 69.2917 86.2604 69.125 86.0938 68.9375C85.9479 68.7708 85.7917 68.5938 85.625 68.4062C85.4792 68.2188 85.3542 68.0104 85.25 67.7812C85.125 68.0521 84.8229 68.4375 84.3438 68.9375C83.8854 69.4375 83.2812 69.8958 82.5312 70.3125C81.7812 70.7083 80.9062 70.9896 79.9062 71.1562C78.9271 71.3229 77.8438 71.2083 76.6562 70.8125C76.1354 70.6458 75.6458 70.4062 75.1875 70.0938C74.7292 69.7604 74.3333 69.3646 74 68.9062C73.6875 68.4479 73.4583 67.9271 73.3125 67.3438C73.1875 66.7396 73.1979 66.0729 73.3438 65.3438C73.4896 64.6146 73.75 64 74.125 63.5C74.5 63 74.9479 62.5938 75.4688 62.2812C75.9896 61.9688 76.5729 61.7292 77.2188 61.5625C77.8646 61.3958 78.5312 61.2812 79.2188 61.2188C79.7604 61.1979 80.3021 61.2292 80.8438 61.3125C81.3021 61.3958 81.7812 61.5521 82.2812 61.7812C82.7812 61.9896 83.2083 62.3125 83.5625 62.75C83.5417 61.6458 83.5 60.7708 83.4375 60.125C83.3958 59.4583 83.3542 58.9479 83.3125 58.5938C83.2292 58.1771 83.1562 57.8854 83.0938 57.7188C82.9896 57.5729 82.875 57.4062 82.75 57.2188C82.6458 57.0312 82.5104 56.8646 82.3438 56.7188C82.1771 56.5521 81.9688 56.4167 81.7188 56.3125C81.4688 56.2083 81.1771 56.1667 80.8438 56.1875C80.4896 56.2083 80.2083 56.3021 80 56.4688C79.7917 56.6354 79.625 56.8333 79.5 57.0625C79.3958 57.2708 79.3333 57.5 79.3125 57.75C79.2917 58 79.3021 58.2188 79.3438 58.4062C79.3854 58.5312 79.4479 58.6667 79.5312 58.8125C79.6146 58.9375 79.7292 59.0729 79.875 59.2188C80.0208 59.3646 80.2188 59.4896 80.4688 59.5938C79.9896 59.6562 79.5625 59.7083 79.1875 59.75C78.8125 59.7708 78.4896 59.8021 78.2188 59.8438C77.9062 59.8854 77.6354 59.9167 77.4062 59.9375C77.1771 59.9583 76.9062 60 76.5938 60.0625C76.3229 60.1042 75.9896 60.1562 75.5938 60.2188C75.1979 60.2812 74.7396 60.3646 74.2188 60.4688C74.3438 60.3229 74.4583 60.1875 74.5625 60.0625C74.6667 59.9167 74.7604 59.7917 74.8438 59.6875C74.9271 59.5625 75.0104 59.4479 75.0938 59.3438ZM79.7812 63.0625C79.4062 63.0833 79.0312 63.1771 78.6562 63.3438C78.2812 63.4896 77.9479 63.7083 77.6562 64C77.3646 64.2708 77.1146 64.5938 76.9062 64.9688C76.7188 65.3229 76.625 65.7188 76.625 66.1562C76.625 66.5938 76.7292 66.9792 76.9375 67.3125C77.1667 67.625 77.4583 67.8854 77.8125 68.0938C78.1875 68.3021 78.5833 68.4271 79 68.4688C79.4375 68.5104 79.8646 68.4688 80.2812 68.3438C80.6771 68.1979 81.0521 67.9688 81.4062 67.6562C81.7604 67.3229 82.0625 66.9688 82.3125 66.5938C82.5625 66.1979 82.7396 65.8125 82.8438 65.4375C82.9479 65.0417 82.9583 64.7188 82.875 64.4688C82.7083 63.9271 82.3333 63.5521 81.75 63.3438C81.1667 63.1146 80.5104 63.0208 79.7812 63.0625ZM90.9062 68.5625C91.0521 67.875 91.1562 67.2708 91.2188 66.75C91.3021 66.2083 91.3646 65.7604 91.4062 65.4062C91.4479 64.9896 91.4688 64.6354 91.4688 64.3438C91.4479 63.9896 91.4271 63.5729 91.4062 63.0938C91.4062 62.5938 91.3854 62.1042 91.3438 61.625C91.3229 61.125 91.2917 60.6875 91.25 60.3125C91.2083 59.9167 91.1562 59.6354 91.0938 59.4688C91.0104 59.3021 90.8958 59.125 90.75 58.9375C90.4583 58.5833 90.0312 58.2396 89.4688 57.9062C89.9479 57.8021 90.3542 57.7188 90.6875 57.6562C91.0417 57.5729 91.3333 57.5 91.5625 57.4375C91.8125 57.3542 92.0312 57.2812 92.2188 57.2188C92.3854 57.1562 92.5833 57.0938 92.8125 57.0312C93 56.9896 93.2292 56.9375 93.5 56.875C93.7708 56.8125 94.0833 56.7396 94.4375 56.6562L94.3438 59.5C95.0104 58.7083 95.6875 58.1146 96.375 57.7188C97.0625 57.3229 97.7083 57.0417 98.3125 56.875C99 56.6667 99.6771 56.5625 100.344 56.5625C101.177 56.6042 101.948 56.7396 102.656 56.9688C103.385 57.1979 104.01 57.4688 104.531 57.7812C105.073 58.0729 105.51 58.3854 105.844 58.7188C106.177 59.0521 106.375 59.3438 106.438 59.5938C106.688 60.4062 106.75 61.1562 106.625 61.8438C106.5 62.5104 106.333 63.1667 106.125 63.8125C105.938 64.4375 105.771 65.0625 105.625 65.6875C105.5 66.3125 105.552 66.9896 105.781 67.7188C105.865 67.9062 105.948 68.0938 106.031 68.2812C106.115 68.4479 106.219 68.6146 106.344 68.7812C106.469 68.9479 106.615 69.0833 106.781 69.1875C106.552 69.1667 106.323 69.1562 106.094 69.1562C105.865 69.1354 105.656 69.1146 105.469 69.0938C105.24 69.0729 105.031 69.0521 104.844 69.0312C104.635 69.0104 104.354 69 104 69C103.396 69 102.458 69.0312 101.188 69.0938C101.375 68.6562 101.521 68.2917 101.625 68C101.75 67.6875 101.854 67.4375 101.938 67.25C102.021 67.0208 102.083 66.8438 102.125 66.7188C102.375 66.1146 102.521 65.4271 102.562 64.6562C102.625 63.8854 102.573 63.1042 102.406 62.3125C102.344 62.0417 102.24 61.7188 102.094 61.3438C101.948 60.9688 101.75 60.6042 101.5 60.25C101.271 59.8958 100.99 59.5938 100.656 59.3438C100.344 59.0938 99.9792 58.9479 99.5625 58.9062C99.1458 58.8646 98.6771 58.9688 98.1562 59.2188C97.6562 59.4688 97.1146 59.9271 96.5312 60.5938C96.0938 61.1562 95.75 61.8438 95.5 62.6562C95.2708 63.3438 95.1146 64.2083 95.0312 65.25C94.9479 66.2708 95.0729 67.4688 95.4062 68.8438C95.1146 68.8021 94.8438 68.7812 94.5938 68.7812C94.3438 68.7604 94.1354 68.7396 93.9688 68.7188C93.7604 68.6979 93.5729 68.6771 93.4062 68.6562C93.2188 68.6562 93.0104 68.6458 92.7812 68.625C92.5729 68.625 92.3125 68.625 92 68.625C91.6875 68.6042 91.3229 68.5833 90.9062 68.5625ZM123.719 48.0625C124.115 48.0833 124.542 48.0938 125 48.0938C125.396 48.0938 125.844 48.1042 126.344 48.125C126.865 48.125 127.406 48.1042 127.969 48.0625C127.469 48.2917 127.031 48.625 126.656 49.0625C126.281 49.5 125.979 49.9375 125.75 50.375C125.458 50.8958 125.219 51.4375 125.031 52C124.927 52.3333 124.844 52.9271 124.781 53.7812C124.719 54.6146 124.667 55.5938 124.625 56.7188C124.604 57.8438 124.594 59.0312 124.594 60.2812C124.594 61.5312 124.604 62.7292 124.625 63.875C124.646 65 124.677 66 124.719 66.875C124.76 67.75 124.812 68.3646 124.875 68.7188C124.958 69.1354 125.062 69.5312 125.188 69.9062C125.292 70.2396 125.427 70.5833 125.594 70.9375C125.76 71.2708 125.969 71.5417 126.219 71.75L123.031 73.1875C122.865 72.9583 122.729 72.7188 122.625 72.4688C122.521 72.2396 122.438 72.0312 122.375 71.8438C122.292 71.6146 122.24 71.4062 122.219 71.2188C122.177 70.9688 122.135 70.6979 122.094 70.4062C122.052 70.0938 122 69.8021 121.938 69.5312C121.896 69.2396 121.865 69 121.844 68.8125C121.823 68.625 121.823 68.5104 121.844 68.4688C121.865 68.4271 121.74 68.6146 121.469 69.0312C121.198 69.4271 120.792 69.8958 120.25 70.4375C119.729 70.9583 119.083 71.4688 118.312 71.9688C117.542 72.4479 116.677 72.75 115.719 72.875C114.74 73 113.833 72.8125 113 72.3125C112.188 71.8125 111.49 71.1146 110.906 70.2188C110.323 69.3021 109.875 68.25 109.562 67.0625C109.271 65.8542 109.156 64.625 109.219 63.375C109.26 62.5417 109.448 61.8021 109.781 61.1562C110.115 60.4896 110.531 59.9167 111.031 59.4375C111.552 58.9375 112.115 58.5208 112.719 58.1875C113.344 57.8333 113.948 57.5417 114.531 57.3125C115.135 57.0833 115.698 56.9167 116.219 56.8125C116.74 56.7083 117.156 56.6354 117.469 56.5938C117.844 56.5729 118.271 56.6354 118.75 56.7812C119.167 56.9062 119.646 57.1146 120.188 57.4062C120.75 57.6979 121.375 58.1354 122.062 58.7188C121.938 56.6354 121.823 54.9688 121.719 53.7188C121.615 52.4479 121.51 51.4792 121.406 50.8125C121.302 50.0208 121.208 49.4792 121.125 49.1875C121.021 48.9792 120.885 48.7708 120.719 48.5625C120.573 48.3958 120.385 48.2292 120.156 48.0625C119.948 47.875 119.698 47.7292 119.406 47.625C119.948 47.7292 120.469 47.8021 120.969 47.8438C121.469 47.8854 121.927 47.9271 122.344 47.9688C122.823 48.0104 123.281 48.0417 123.719 48.0625ZM115.875 59.7188C115.479 59.8646 115.156 60.1146 114.906 60.4688C114.677 60.8229 114.49 61.25 114.344 61.75C114.198 62.2292 114.094 62.75 114.031 63.3125C113.99 63.8542 113.958 64.3854 113.938 64.9062C113.938 65.4062 113.938 65.8646 113.938 66.2812C113.938 66.6979 113.938 67.0104 113.938 67.2188C113.938 67.3438 113.958 67.5729 114 67.9062C114.062 68.2188 114.188 68.5521 114.375 68.9062C114.562 69.2396 114.823 69.5417 115.156 69.8125C115.51 70.0833 115.979 70.2188 116.562 70.2188C117.042 70.1771 117.552 70.0104 118.094 69.7188C118.573 69.4688 119.115 69.0729 119.719 68.5312C120.344 67.9688 121.01 67.1667 121.719 66.125C121.677 65.4583 121.646 64.9062 121.625 64.4688C121.625 64.0312 121.615 63.6771 121.594 63.4062C121.573 63.0938 121.562 62.8438 121.562 62.6562V62.1875C121.562 62.0625 121.562 61.9271 121.562 61.7812C121.562 61.6354 121.573 61.5 121.594 61.375C121.01 60.9583 120.49 60.6042 120.031 60.3125C119.594 60 119.156 59.7708 118.719 59.625C118.302 59.4583 117.865 59.3854 117.406 59.4062C116.969 59.4062 116.458 59.5104 115.875 59.7188Z" fill="white"/>
<defs>
<filter id="filter0_d_92_177" x="0" y="0" width="138" height="138" filterUnits="userSpaceOnUse" color-interpolation-filters="sRGB">
<feFlood flood-opacity="0" result="BackgroundImageFix"/>
<feColorMatrix in="SourceAlpha" type="matrix" values="0 0 0 0 0 0 0 0 0 0 0 0 0 0 0 0 0 0 127 0" result="hardAlpha"/>
<feOffset dy="4"/>
<feGaussianBlur stdDeviation="2"/>
<feComposite in2="hardAlpha" operator="out"/>
<feColorMatrix type="matrix" values="0 0 0 0 0 0 0 0 0 0 0 0 0 0 0 0 0 0 0.25 0"/>
<feBlend mode="normal" in2="BackgroundImageFix" result="effect1_dropShadow_92_177"/>
<feBlend mode="normal" in="SourceGraphic" in2="effect1_dropShadow_92_177" result="shape"/>
</filter>
<filter id="filter1_d_92_177" x="3" y="3" width="132" height="132" filterUnits="userSpaceOnUse" color-interpolation-filters="sRGB">
<feFlood flood-opacity="0" result="BackgroundImageFix"/>
<feColorMatrix in="SourceAlpha" type="matrix" values="0 0 0 0 0 0 0 0 0 0 0 0 0 0 0 0 0 0 127 0" result="hardAlpha"/>
<feOffset dy="4"/>
<feGaussianBlur stdDeviation="2"/>
<feComposite in2="hardAlpha" operator="out"/>
<feColorMatrix type="matrix" values="0 0 0 0 0 0 0 0 0 0 0 0 0 0 0 0 0 0 0.25 0"/>
<feBlend mode="normal" in2="BackgroundImageFix" result="effect1_dropShadow_92_177"/>
<feBlend mode="normal" in="SourceGraphic" in2="effect1_dropShadow_92_177" result="shape"/>
</filter>
</defs>
</svg>
