<svg width="60" height="60" viewBox="0 0 60 60" fill="none" xmlns="http://www.w3.org/2000/svg">
<mask id="mask0_7_32" style="mask-type:alpha" maskUnits="userSpaceOnUse" x="0" y="0" width="60" height="60">
<rect width="60" height="60" fill="white"/>
</mask>
<g mask="url(#mask0_7_32)">
<path d="M21.2715 47.4951C21.4628 47.4733 21.6304 47.382 21.7461 47.3066C21.8957 47.2092 22.0482 47.0788 22.1943 46.9326C22.4877 46.6391 22.7959 46.2427 23.0547 45.8047H23.0537C23.2691 45.4673 23.4212 45.2414 23.5557 45.083C23.6857 44.9298 23.7739 44.8726 23.8486 44.8438C23.9283 44.813 24.0491 44.7929 24.2832 44.8125C24.5218 44.8325 24.8297 44.8884 25.2695 44.9746L25.2773 44.9756L25.7627 45.0527C28.1355 45.3871 31.9955 45.3871 34.3682 45.0527L34.8525 44.9756L34.8613 44.9746L35.4316 44.8682C35.5947 44.8408 35.7336 44.8222 35.8555 44.8115C36.0959 44.7905 36.2291 44.8074 36.3203 44.8389C36.5053 44.9029 36.6787 45.0728 37.1367 45.7461L37.1445 45.7568L37.8281 46.7188C37.9204 46.8491 38.0014 46.9627 38.0654 47.0498C38.1102 47.1108 38.1706 47.1885 38.2227 47.2451C38.3079 47.3436 38.4067 47.389 38.457 47.4072C38.5288 47.4331 38.5973 47.4429 38.6445 47.4473C38.7411 47.4563 38.8481 47.4519 38.9482 47.4434C39.1545 47.4257 39.4248 47.3829 39.7324 47.3232C40.3525 47.2029 41.1791 47.0045 42.0684 46.7686C43.8379 46.299 45.9017 45.6653 47.1299 45.1631L47.7119 44.9268C48.9311 44.4078 50.4456 43.6383 51.5391 42.9971L52.0469 42.6885L52.0518 42.6855L52.7783 42.2109C52.9939 42.0668 53.1835 41.9351 53.3477 41.8105C53.6782 41.5598 53.9428 41.3129 54.1309 41.0117C54.5058 40.411 54.5 39.699 54.5 38.6836C54.5 35.6082 53.9816 31.7423 53.1826 28.0898C52.3845 24.4417 51.2965 20.9622 50.1377 18.6689L50.1357 18.665C49.1221 16.6999 48.2198 15.4217 46.7236 14.5488C45.2579 13.6938 43.2716 13.2602 40.1895 12.8135L40.1904 12.8125C39.399 12.6956 38.7844 12.6076 38.2959 12.5615C37.8096 12.5157 37.414 12.5071 37.0684 12.5625C36.5136 12.6514 36.1384 12.902 35.7441 13.249L35.3359 13.626C35.0555 13.8902 34.8569 14.061 34.6523 14.1855C34.4572 14.3043 34.2396 14.3907 33.9189 14.4531C33.2386 14.5855 32.1785 14.5986 30.0654 14.5986C27.9525 14.5986 26.8923 14.5854 26.2119 14.4531C25.8913 14.3907 25.6736 14.3042 25.4785 14.1855C25.2738 14.061 25.0746 13.8904 24.7939 13.626L24.7891 13.6211C24.4688 13.3275 24.1858 13.0574 23.8916 12.8672C23.5694 12.6589 23.2336 12.5424 22.7969 12.5098C22.3828 12.4788 21.8789 12.5239 21.2168 12.6191C20.5496 12.7152 19.6823 12.8685 18.5332 13.0703V13.0713C15.7312 13.5609 13.9365 14.0433 12.5693 15.1338C11.2035 16.2232 10.325 17.8707 9.19629 20.4873L9.19434 20.4922C7.55791 24.3934 6.15684 30.9309 5.80566 36.5576L5.50098 40.8232L5.48145 41.1025L5.70898 41.2656L7.31934 42.417C8.23821 43.1324 10.0035 44.1242 11.3184 44.7256L11.3252 44.7285L11.7842 44.9189C12.9559 45.3831 14.8033 45.9729 16.5469 46.4678C17.5477 46.7518 18.5249 47.0073 19.334 47.1924C20.1216 47.3725 20.8057 47.5 21.1875 47.5L21.2715 47.4951ZM20.2129 43.9912C19.9446 43.999 19.5782 43.966 19.127 43.8906C18.2279 43.7404 17.0656 43.4334 15.8281 43.0273C13.3395 42.2108 10.649 41.0261 9.25781 39.9883C9.07291 39.847 8.99895 39.7715 8.9502 39.6846C8.90098 39.5967 8.85022 39.4455 8.83301 39.1113C8.79741 38.4185 8.91083 37.2001 9.15234 34.7686L9.23828 33.9922C9.69287 30.1206 10.5134 26.3957 11.501 23.4229C12.0278 21.8371 12.5983 20.4765 13.1797 19.4258C13.6956 18.4934 14.1966 17.8487 14.6484 17.4912L14.8398 17.3555L14.8418 17.3535L14.9971 17.2656C15.4133 17.0531 16.1976 16.7933 17.3516 16.5117C18.6177 16.2028 20.2681 15.8836 22.2285 15.5713C22.2848 15.6084 22.3641 15.664 22.4619 15.7432C22.6944 15.9314 22.9963 16.206 23.3154 16.5186C23.5881 16.8063 23.8399 17.0679 24.1377 17.2686C24.455 17.4824 24.8026 17.6148 25.2617 17.6963C26.1305 17.8506 27.5105 17.8375 30.0693 17.8164L31.7451 17.7979C33.2304 17.7759 34.1742 17.7351 34.8418 17.6162C35.3051 17.5337 35.6615 17.4101 35.9863 17.2188C36.3016 17.0329 36.5655 16.7951 36.8486 16.5283L37.8408 15.5918L40.9883 16.1455H40.9893L41.7256 16.2803C43.3572 16.5937 44.387 16.9031 45.1475 17.3604C45.9893 17.8666 46.5451 18.5825 47.2021 19.8496C48.1955 21.7765 49.2289 25.0433 50.0146 28.4795C50.7997 31.9126 51.3242 35.4537 51.3242 37.916C51.3242 38.8268 51.2855 39.1201 51.1035 39.3711C51.0063 39.5051 50.8461 39.6537 50.5518 39.8535C50.2578 40.053 49.8635 40.2824 49.3193 40.5918V40.5908C46.562 42.1109 43.0962 43.4473 40.9141 43.7764L40.9072 43.7773C40.2458 43.8854 39.9129 43.8976 39.7314 43.8574C39.6598 43.8415 39.6354 43.8212 39.624 43.8105C39.608 43.7955 39.5773 43.7584 39.5391 43.6611L39.5342 43.6484L39.0732 43.8438L39.5332 43.6484C39.5227 43.6236 39.5218 43.6106 39.5215 43.6074C39.5213 43.6056 39.5208 43.6049 39.5215 43.6025C39.5239 43.5941 39.542 43.545 39.6377 43.4531C39.8449 43.2541 40.2658 42.9954 41.0273 42.6328L41.7754 42.2676C41.9998 42.1521 42.1993 42.0416 42.375 41.9355C42.721 41.7268 43.0096 41.512 43.2061 41.2676C43.4172 41.0048 43.5243 40.704 43.4902 40.3672C43.4591 40.0602 43.3151 39.7762 43.1484 39.5195L43.1426 39.5107C43.0214 39.3326 42.8538 39.1569 42.6006 39.0586C42.356 38.9637 42.0948 38.9663 41.833 39.0117C41.3314 39.0988 40.6196 39.3846 39.5693 39.8467V39.8457C36.2989 41.2796 32.4528 42.2353 30.0654 42.2354C27.678 42.2354 23.832 41.2796 20.5615 39.8457L20.5605 39.8467C19.5107 39.3847 18.7994 39.0989 18.2979 39.0117C18.036 38.9662 17.7749 38.9637 17.5303 39.0586C17.277 39.1568 17.1095 39.3326 16.9883 39.5107L16.9824 39.5195C16.8158 39.7762 16.6717 40.0602 16.6406 40.3672C16.6066 40.7041 16.7136 41.0048 16.9248 41.2676C17.1212 41.5119 17.4091 41.7269 17.7549 41.9355C18.1057 42.1472 18.5529 42.3746 19.0996 42.6318L19.7969 42.9775C19.9976 43.0823 20.1676 43.1775 20.3105 43.2646C20.6065 43.4452 20.7366 43.5657 20.7871 43.6357C20.7891 43.6385 20.7905 43.6413 20.792 43.6436C20.77 43.6907 20.7071 43.7838 20.5459 43.9434C20.5384 43.9466 20.5242 43.9511 20.502 43.957C20.4413 43.9731 20.347 43.9873 20.2129 43.9912Z" fill="white" stroke="white"/>
<path d="M22.3408 34.656C23.2292 34.7047 24.0471 34.2377 24.8115 33.4431L25.0371 33.1873C26.1051 31.8672 26.2503 29.9589 25.8203 28.3904C25.3673 26.7382 24.1801 25.1757 22.4062 25.1755C21.9834 25.1755 21.5265 25.3727 21.126 25.6267C20.7112 25.8898 20.2932 26.2541 19.9365 26.6736C18.2546 28.6516 18.2546 31.2288 19.9365 33.2068L19.9375 33.2087L20.2148 33.5134C20.8689 34.19 21.5709 34.6137 22.3408 34.656Z" fill="white" stroke="white"/>
<path d="M37.5723 34.656C38.4607 34.7047 39.2785 34.2377 40.043 33.4431L40.2686 33.1873C41.3365 31.8672 41.4817 29.9589 41.0518 28.3904C40.5988 26.7382 39.4115 25.1757 37.6377 25.1755C37.2148 25.1755 36.758 25.3727 36.3574 25.6267C35.9427 25.8898 35.5246 26.2541 35.168 26.6736C33.4861 28.6516 33.4861 31.2288 35.168 33.2068L35.1689 33.2087L35.4463 33.5134C36.1004 34.19 36.8023 34.6137 37.5723 34.656Z" fill="white" stroke="white"/>
</g>
</svg>
