<svg width="60" height="60" viewBox="0 0 60 60" fill="none" xmlns="http://www.w3.org/2000/svg">
<mask id="mask0_7_31" style="mask-type:alpha" maskUnits="userSpaceOnUse" x="0" y="0" width="60" height="60">
<rect width="60" height="60" fill="white"/>
</mask>
<g mask="url(#mask0_7_31)">
<path d="M17.5546 7.06979C16.2666 7.40481 15.6172 8.40984 15.1193 10.863C14.8487 12.1814 14.8054 14.1483 15.0111 15.5315C15.1626 16.5582 15.1626 16.569 14.1993 18.2657C12.8464 20.6648 12.3268 23.172 12.5216 26.4464C12.7057 29.4183 13.1819 31.4176 14.2426 33.6113C15.9094 37.0695 18.6045 39.339 22.6417 40.6898C23.4318 40.9492 23.9297 41.1761 23.9297 41.2518C23.9189 41.3274 23.8323 41.684 23.7349 42.0407C23.6375 42.3973 23.5292 43.1646 23.4859 43.7373L23.421 44.7856L22.7175 44.8612C21.6351 44.9693 20.0332 44.8396 19.2323 44.5803C17.6953 44.0723 16.613 43.3159 14.5781 41.3382C13.8313 40.6142 12.9329 39.8037 12.5649 39.5443C11.7856 38.9931 10.3894 38.2691 9.73999 38.107C8.89575 37.88 7.94328 38.2583 7.39128 39.0472C6.95834 39.6632 6.87175 40.6574 7.19645 41.295C7.47787 41.8353 7.92163 42.2568 8.46281 42.4837C9.38282 42.862 10.4327 43.6617 11.8073 45.045C14.8487 48.1141 17.9118 49.4541 21.9706 49.4758L23.5617 49.4974V50.3403C23.5617 51.6047 23.9513 52.3288 24.9038 52.8151C25.2393 52.988 25.4775 53.0204 26.0078 52.988C26.8845 52.9339 27.4906 52.5449 27.8803 51.7668L28.1617 51.2373L28.1834 47.3252C28.205 42.635 28.2375 42.4621 29.3523 41.014C30.2831 39.8145 30.2831 38.777 29.3739 37.8368C28.8544 37.2965 28.7029 37.2424 26.5382 36.8642C23.2586 36.2806 21.0182 35.1783 19.5678 33.4276C17.9659 31.4932 17.0459 28.0891 17.2083 24.6417C17.284 23.0531 17.6196 21.7995 18.3339 20.4811C19.7301 17.9415 19.8384 17.5308 19.7085 15.672C19.6111 14.1807 19.5894 11.8788 19.6869 11.7816C19.7626 11.7059 21.1589 12.2463 22.1871 12.765C22.6092 12.9811 23.4426 13.4782 24.0271 13.8673C25.3476 14.7426 25.6398 14.7859 27.3175 14.386C29.7311 13.8132 32.3396 13.5971 34.5909 13.7808C36.0521 13.8997 37.8813 14.2023 38.8662 14.4941C39.5373 14.6886 40.2408 14.6886 40.6954 14.4941C40.8902 14.4184 41.453 14.0726 41.9618 13.7376C43.2822 12.8622 45.8907 11.6195 46.0639 11.7924C46.0964 11.8248 46.1072 12.5705 46.0964 13.435C45.9881 18.1036 45.9557 17.9198 47.0921 19.9299C48.326 22.1021 48.6724 23.7555 48.4559 26.468C48.1853 30.0235 47.3302 32.2281 45.5444 33.9896C43.9533 35.5674 42.1891 36.3347 38.8987 36.8858C36.7664 37.2532 36.4093 37.4262 35.9547 38.3663C35.6949 38.8743 35.6624 39.058 35.7166 39.5659C35.7599 39.9658 35.8789 40.3116 36.0521 40.5709C36.2036 40.7871 36.5067 41.1977 36.7123 41.5003C37.47 42.5702 37.5241 42.9376 37.5241 47.1955C37.5241 51.3453 37.5457 51.5615 38.141 52.2423C39.1585 53.4311 41.0093 53.1825 41.7345 51.7668L42.0159 51.2373V47.0658C42.0159 42.862 41.9942 42.5594 41.5829 41.2193C41.5396 41.0897 41.7561 40.9924 42.5787 40.7547C48.5317 39.0364 51.9736 34.8217 52.8503 28.1539C53.11 26.1114 53.0234 22.9558 52.6554 21.5617C52.2766 20.1569 51.7571 18.8708 51.1401 17.8442C50.4474 16.6987 50.4041 16.5258 50.5881 15.2397C50.9345 12.8298 50.3608 9.24197 49.4192 7.95595C48.1961 6.25928 44.3754 6.86446 40.1542 9.42568L39.3641 9.90118L38.3034 9.68504C36.3227 9.28519 35.2403 9.18793 32.7617 9.18793C30.3048 9.18793 29.3307 9.28519 27.2958 9.68504L26.2135 9.90118L25.0229 9.18793C23.6483 8.37742 21.9382 7.63175 20.6934 7.29674C19.7518 7.05899 18.0741 6.92931 17.5546 7.06979Z" fill="white"/>
</g>
</svg>
