<svg width="60" height="60" viewBox="0 0 60 60" fill="none" xmlns="http://www.w3.org/2000/svg">
<mask id="mask0_128_38" style="mask-type:alpha" maskUnits="userSpaceOnUse" x="0" y="0" width="60" height="60">
<path d="M60 0H0V60H60V0Z" fill="white"/>
</mask>
<g mask="url(#mask0_128_38)">
<path d="M18.7222 4C10.6044 4 4 10.6044 4 18.7222V42.2778C4 50.3956 10.6044 57 18.7222 57H42.2778C50.3956 57 57 50.3956 57 42.2778V18.7222C57 10.6044 50.3956 4 42.2778 4H18.7222ZM18.7222 9.8889H42.2778C47.1479 9.8889 51.1111 13.8521 51.1111 18.7222V42.2778C51.1111 47.1479 47.1479 51.1111 42.2778 51.1111H18.7222C13.8521 51.1111 9.8889 47.1479 9.8889 42.2778V18.7222C9.8889 13.8521 13.8521 9.8889 18.7222 9.8889ZM45.2222 12.8333C43.5961 12.8333 42.2778 14.1516 42.2778 15.7778C42.2778 17.4039 43.5961 18.7222 45.2222 18.7222C46.8484 18.7222 48.1667 17.4039 48.1667 15.7778C48.1667 14.1516 46.8484 12.8333 45.2222 12.8333ZM30.5 15.7778C22.3822 15.7778 15.7778 22.3822 15.7778 30.5C15.7778 38.6178 22.3822 45.2222 30.5 45.2222C38.6178 45.2222 45.2222 38.6178 45.2222 30.5C45.2222 22.3822 38.6178 15.7778 30.5 15.7778ZM30.5 21.6667C35.3701 21.6667 39.3333 25.6299 39.3333 30.5C39.3333 35.3701 35.3701 39.3333 30.5 39.3333C25.6299 39.3333 21.6667 35.3701 21.6667 30.5C21.6667 25.6299 25.6299 21.6667 30.5 21.6667Z" fill="white"/>
</g>
</svg>
