<svg width="60" height="60" viewBox="0 0 60 60" fill="none" xmlns="http://www.w3.org/2000/svg">
<mask id="mask0_7_33" style="mask-type:alpha" maskUnits="userSpaceOnUse" x="0" y="0" width="60" height="60">
<rect width="60" height="60" fill="white"/>
</mask>
<g mask="url(#mask0_7_33)">
<path d="M8.59062 4.19637C7.48359 4.49094 6.69141 4.94803 5.82812 5.82158C4.94453 6.69513 4.49766 7.47726 4.20312 8.62507C4 9.39705 4 9.82366 4 29.9966C4 50.1696 4 50.5962 4.20312 51.3681C4.49766 52.516 4.94453 53.2981 5.82812 54.1716C6.70156 55.0553 7.48359 55.5023 8.63125 55.7968C9.40312 56 9.82969 56 30 56C50.1703 56 50.5969 56 51.3687 55.7968C52.5164 55.5023 53.2984 55.0553 54.1719 54.1716C55.0555 53.2981 55.5023 52.516 55.7969 51.3681C56 50.5962 56 50.1696 56 29.9966C56 9.82366 56 9.39705 55.7969 8.62507C55.5023 7.47726 55.0555 6.69513 54.1719 5.82158C53.2984 4.93787 52.5164 4.49094 51.3687 4.19637C50.5969 3.99322 50.1805 3.99322 29.9594 4.00337C9.98203 4.00337 9.31172 4.01353 8.59062 4.19637ZM50.9523 8.35082C51.1656 8.48286 51.4602 8.77743 51.6125 9.0009V9.0009C51.7914 9.27257 51.8867 9.59072 51.8867 9.91599V29.9865V50.1092C51.8867 50.4074 51.8022 50.6995 51.643 50.9517V50.9517C51.5109 51.165 51.2164 51.4596 50.993 51.6119V51.6119C50.7213 51.7908 50.4032 51.8862 50.078 51.8862H30H9.92205C9.59679 51.8862 9.27867 51.7908 9.00703 51.6119V51.6119C8.78359 51.4596 8.48906 51.165 8.35703 50.9517V50.9517C8.19778 50.6995 8.11304 50.4074 8.1126 50.1092L8.08281 30.2099C8.07266 16.0909 8.09297 9.7424 8.16406 9.45799C8.29609 8.98059 8.94609 8.30003 9.40312 8.16798C9.61641 8.10703 17.457 8.07656 30.1523 8.08672L50.1099 8.10658C50.4081 8.10688 50.7002 8.19155 50.9523 8.35082V8.35082Z" fill="white"/>
<path d="M15.6998 12.6781C14.9483 12.8914 14.3694 13.2469 13.7803 13.8767C12.8662 14.8417 12.4904 16.0809 12.7037 17.3506C12.8561 18.2241 13.1709 18.8641 13.7803 19.504C14.6944 20.469 15.842 20.9261 17.1014 20.8245C18.117 20.7432 18.8483 20.4182 19.5795 19.7376C20.9811 18.4171 21.3467 16.477 20.4936 14.7909C20.1076 14.0291 19.1123 13.1149 18.3506 12.8305C17.5889 12.5461 16.4209 12.475 15.6998 12.6781Z" fill="white"/>
<path d="M36.9063 23.709C34.9359 23.9934 32.925 25.1616 31.9805 26.5735V26.5735C31.8734 26.7326 31.625 26.6568 31.625 26.465V25.5475V25.5475C31.625 24.6948 30.9337 24.0036 30.081 24.0036H28.1719V24.0036C26.2648 24.0036 24.7188 25.5496 24.7188 27.4567V35.4817V43.5167C24.7188 45.4182 26.2602 46.9597 28.1617 46.9597V46.9597V46.9597C30.0722 46.9597 31.6243 45.4171 31.636 43.5067L31.6555 40.3268C31.6961 33.1251 31.6961 33.1454 32.2852 31.8859C33.0164 30.3419 34.4484 29.5903 36.4086 29.7223C37.7898 29.8137 38.7141 30.413 39.2422 31.571C39.7703 32.7086 39.7805 32.8204 39.8211 40.1237L39.8409 43.4559C39.8524 45.3944 41.4271 46.9597 43.3656 46.9597V46.9597V46.9597C45.2978 46.9597 46.8613 45.388 46.8513 43.4559L46.8289 39.1587C46.7984 34.0901 46.7375 31.1342 46.6664 30.7076C45.9047 26.2586 44.0359 24.2677 40.1055 23.6989C39.2828 23.5871 37.7086 23.5871 36.9063 23.709Z" fill="white"/>
<path d="M13.1406 35.4817V43.405C13.1406 45.3682 14.7321 46.9597 16.6953 46.9597V46.9597V46.9597C18.6585 46.9597 20.25 45.3682 20.25 43.405V35.4817V27.5583C20.25 25.5951 18.6585 24.0036 16.6953 24.0036V24.0036V24.0036C14.7321 24.0036 13.1406 25.5951 13.1406 27.5583V35.4817Z" fill="white"/>
</g>
</svg>
